STARTFONT 2.1
COMMENT
COMMENT Converted from OpenType font "Multicolore.otf" by "otf2bdf 3.0".
COMMENT
FONT -FreeType-Multicolore -Medium-R-Normal--50-360-100-100-P-278-ISO10646-1
SIZE 36 100 100
FONTBOUNDINGBOX 68 61 -3 -12
STARTPROPERTIES 19
FOUNDRY "FreeType"
FAMILY_NAME "Multicolore "
WEIGHT_NAME "Medium"
SLANT "R"
SETWIDTH_NAME "Normal"
ADD_STYLE_NAME ""
PIXEL_SIZE 50
POINT_SIZE 360
RESOLUTION_X 100
RESOLUTION_Y 100
SPACING "P"
AVERAGE_WIDTH 278
CHARSET_REGISTRY "ISO10646"
CHARSET_ENCODING "1"
FONT_ASCENT 37
FONT_DESCENT 12
COPYRIGHT "Copyright (c) 2012 by Ivan Filipov. All rights reserved."
_OTF_FONTFILE "Multicolore.otf"
_OTF_PSNAME "Multicolore"
ENDPROPERTIES
CHARS 200
STARTCHAR 0020
ENCODING 32
SWIDTH 300 0
DWIDTH 15 0
BBX 0 0 0 0
BITMAP
ENDCHAR
STARTCHAR 0021
ENCODING 33
SWIDTH 300 0
DWIDTH 15 0
BBX 7 36 4 0
BITMAP
78
FC
FE
FE
FE
FE
FE
FE
FE
FE
FE
FE
FE
FE
FE
FE
FE
FE
FE
FE
FE
FE
FC
78
00
00
00
00
7C
FE
FE
FE
FE
FE
7C
38
ENDCHAR
STARTCHAR 0022
ENCODING 34
SWIDTH 400 0
DWIDTH 20 0
BBX 15 14 3 22
BITMAP
701C
F83E
F87E
F87E
F87E
F87E
F87E
F87E
F87E
F87E
F87E
F87E
F83C
2000
ENDCHAR
STARTCHAR 0024
ENCODING 36
SWIDTH 620 0
DWIDTH 31 0
BBX 27 45 2 -6
BITMAP
000E0000
001F0000
001F0000
001F0000
003F0000
01FFE000
07FFFC00
1FFFFE00
3FFFFF00
3FFFFF00
7FFFFF00
7F1F3E00
FE1F0C00
FE1F0000
FC1F0000
FC1F0000
FE1F0000
FF1F0000
7FDF0000
7FFF0000
3FFFC000
1FFFF800
0FFFFE00
01FFFF00
003FFF80
001FFFC0
001F7FC0
001F1FC0
001F0FE0
001F0FE0
001F0FE0
001F0FE0
781F0FE0
FE1F1FC0
FFDF7FC0
FFFFFF80
FFFFFF80
7FFFFF00
3FFFFC00
0FFFF800
01FFC000
001F0000
001F0000
001F0000
000F0000
ENDCHAR
STARTCHAR 0025
ENCODING 37
SWIDTH 940 0
DWIDTH 47 0
BBX 44 37 1 0
BITMAP
03F800000000
0FFE00018000
1FFF0007C000
3FFF800FE000
7FFF800FE000
7FBFC01FE000
7E1FC03FC000
7E0FC03FC000
FC0FC07F8000
FC0FC0FF0000
FC0FC1FF0000
FE0FC1FE0000
7E0FC3FC0000
7F1FC7F80000
7FFF87F80000
3FFF8FF00000
1FFF1FE00000
0FFE3FE0FC00
07F83FC3FF00
00007F87FF80
0000FF0FFFC0
0000FF1FFFE0
0001FE1FFFE0
0003FC3F87F0
0007FC3F03F0
0007F83F03F0
000FF03F03F0
001FE03F03F0
001FE03F03F0
003FC03F87F0
007F803FCFE0
007F001FFFE0
00FF001FFFC0
00FE000FFFC0
007C0007FF80
00380003FE00
000000007000
ENDCHAR
STARTCHAR 0026
ENCODING 38
SWIDTH 680 0
DWIDTH 34 0
BBX 32 36 1 -2
BITMAP
001FE000
003FF800
00FFFC00
00FFFE00
01FFFF00
03FFFF00
03FC7F80
03F83F80
03F03F80
03F03F80
03F03F80
03F83F80
03F83F80
01FCFF00
01FFFF00
03FFFE00
0FFFFE00
1FFFF83C
3FFFF03E
3FFFF87E
7FC7FCFE
7F03FEFC
7F01FFFC
FE00FFF8
FE007FF0
FE003FF0
7F001FE0
7F003FF0
7FC07FF8
3FFFFFFC
3FFFFFFE
1FFFFEFF
0FFFFCFF
07FFF87F
01FFE03E
007F8000
ENDCHAR
STARTCHAR 0027
ENCODING 39
SWIDTH 200 0
DWIDTH 10 0
BBX 5 14 3 22
BITMAP
70
F8
F8
F8
F8
F8
F8
F8
F8
F8
F8
F8
F8
20
ENDCHAR
STARTCHAR 002C
ENCODING 44
SWIDTH 220 0
DWIDTH 11 0
BBX 7 11 2 -7
BITMAP
78
FC
FE
FE
FE
FE
FC
FC
FC
F8
F0
ENDCHAR
STARTCHAR 002D
ENCODING 45
SWIDTH 480 0
DWIDTH 24 0
BBX 18 6 3 14
BITMAP
7FFF80
FFFFC0
FFFFC0
FFFFC0
FFFFC0
7FFF80
ENDCHAR
STARTCHAR 002E
ENCODING 46
SWIDTH 240 0
DWIDTH 12 0
BBX 7 8 2 0
BITMAP
38
7E
FE
FE
FE
FE
7E
3C
ENDCHAR
STARTCHAR 002F
ENCODING 47
SWIDTH 500 0
DWIDTH 25 0
BBX 23 35 1 0
BITMAP
000038
00007C
00007E
0000FE
0000FE
0001FC
0003F8
0003F8
0007F0
0007F0
000FE0
001FC0
001FC0
003F80
003F80
007F00
00FE00
00FE00
01FC00
01FC00
03F800
07F000
07F000
0FE000
0FE000
1FC000
1FC000
3F8000
7F0000
7F0000
FE0000
FE0000
FC0000
F80000
780000
ENDCHAR
STARTCHAR 0030
ENCODING 48
SWIDTH 680 0
DWIDTH 34 0
BBX 30 36 2 -1
BITMAP
000FE000
007FFC00
01FFFE00
03FFFF80
07FFFFC0
0FFFFFC0
0FFFFFE0
1FF01FF0
1FE00FF0
3FC007F8
3F8003F8
7F0003F8
7F0001F8
7F0001FC
7E0001FC
7E0001FC
FE0001FC
FE0000FC
FE0000FC
FE0000FC
FE0001FC
7E0001FC
7F0001FC
7F0001FC
7F0003F8
3F8003F8
3FC007F8
3FE00FF0
1FF01FF0
0FFFFFE0
0FFFFFC0
07FFFFC0
03FFFF80
01FFFF00
007FFC00
000FE000
ENDCHAR
STARTCHAR 0031
ENCODING 49
SWIDTH 380 0
DWIDTH 19 0
BBX 14 35 1 -1
BITMAP
0010
00FC
07FC
1FFC
7FFC
7FFC
FFFC
7FFC
7EFC
18FC
00FC
00FC
00FC
00FC
00FC
00FC
00FC
00FC
00FC
00FC
00FC
00FC
00FC
00FC
00FC
00FC
00FC
00FC
00FC
00FC
00FC
00FC
00FC
00FC
0078
ENDCHAR
STARTCHAR 0032
ENCODING 50
SWIDTH 580 0
DWIDTH 29 0
BBX 26 34 1 0
BITMAP
00FFC000
03FFF000
07FFF800
0FFFFC00
1FFFFE00
3FFFFF00
3FC1FF00
7F807F00
7F003F80
3E003F80
1C003F80
00003F80
00003F80
00003F00
00007F00
0000FF00
0001FE00
0003FE00
0007FC00
000FF800
001FF000
007FE000
00FFC000
01FF8000
03FE0000
07FC0000
0FF00000
1FE00000
3FFFFF80
7FFFFFC0
FFFFFFC0
FFFFFFC0
7FFFFFC0
3FFFFF80
ENDCHAR
STARTCHAR 0033
ENCODING 51
SWIDTH 560 0
DWIDTH 28 0
BBX 24 34 2 0
BITMAP
3FFFF8
7FFFFC
7FFFFE
7FFFFE
7FFFFC
3FFFF8
000FF0
001FE0
003FC0
007F80
00FF00
03FE00
07FC00
0FFF80
0FFFE0
1FFFF8
0FFFFC
0FFFFE
07C7FE
0000FF
00007F
00007F
00007F
00007F
78007F
FC007F
FE00FE
FF83FE
FFFFFC
7FFFFC
3FFFF8
1FFFF0
0FFFC0
01FE00
ENDCHAR
STARTCHAR 0034
ENCODING 52
SWIDTH 640 0
DWIDTH 32 0
BBX 30 35 1 -1
BITMAP
00000E00
00003F00
00007F80
00007F80
0000FF80
0001FF80
0003FF80
0007FF80
0007FF80
000FFF80
001FDF80
003F9F80
007F9F80
00FF1F80
00FE1F80
01FC3F80
03F83F80
07F03F80
0FF03F80
0FE03F80
1FC03F80
3F803F80
7FFFFFF8
7FFFFFFC
FFFFFFFC
FFFFFFFC
7FFFFFF8
3FFFFFF0
00003F80
00003F80
00003F80
00003F80
00003F80
00003F00
00001E00
ENDCHAR
STARTCHAR 0035
ENCODING 53
SWIDTH 580 0
DWIDTH 29 0
BBX 24 34 3 0
BITMAP
3FFFFC
7FFFFC
7FFFFC
7FFFFC
7FFFFC
7FFFF8
7E0000
7E0000
7E0000
7E0000
7E0000
7E7800
7FFFC0
FFFFE0
FFFFF8
FFFFFC
7FFFFE
7FFFFE
1001FF
00007F
00007F
00007F
00003F
00007F
38007F
7C007F
FE00FE
FF87FE
FFFFFC
7FFFFC
3FFFF8
1FFFF0
0FFFC0
01FE00
ENDCHAR
STARTCHAR 0036
ENCODING 54
SWIDTH 640 0
DWIDTH 32 0
BBX 27 35 2 0
BITMAP
003FF800
00FFFE00
03FFFF00
07FFFF80
07FFFFC0
0FFFFFC0
1FF03F80
1FC00F80
3F800000
3F000000
7F000000
7F000000
7E000000
7E3FE000
7EFFFC00
7FFFFE00
FFFFFF00
FFFFFF80
FFFFFFC0
FFE03FC0
FF801FE0
FF000FE0
7F000FE0
7F0007E0
7F0007E0
7F000FE0
3F800FE0
3FC03FE0
3FFFFFC0
1FFFFFC0
0FFFFF80
07FFFF00
03FFFE00
01FFF800
003FE000
ENDCHAR
STARTCHAR 0037
ENCODING 55
SWIDTH 540 0
DWIDTH 27 0
BBX 25 35 1 -2
BITMAP
7FFFFE00
FFFFFF00
FFFFFF80
FFFFFF80
FFFFFF00
7FFFFF00
0000FE00
0000FE00
0001FC00
0003FC00
0003F800
0007F800
0007F000
000FF000
000FE000
001FC000
001FC000
003F8000
003F8000
007F0000
007F0000
00FE0000
00FE0000
01FC0000
03FC0000
03F80000
07F80000
07F00000
0FF00000
0FE00000
1FC00000
1FC00000
1F800000
0F800000
07000000
ENDCHAR
STARTCHAR 0038
ENCODING 56
SWIDTH 640 0
DWIDTH 32 0
BBX 28 37 2 3
BITMAP
00060000
00FFF000
03FFFC00
07FFFE00
0FFFFF00
1FFFFF80
3FFBFF80
3FC03FC0
3F001FC0
7F000FC0
7F000FC0
7F000FC0
7F001FC0
3F801FC0
3FE07FC0
3FFFFF80
1FFFFF00
0FFFFE00
0FFFFE00
1FFFFF80
3FFFFFC0
7FE07FC0
7F001FE0
FE000FE0
FE0007F0
FC0007F0
FC0007F0
FE0007F0
FE000FE0
FF001FE0
7FC07FE0
7FFFFFC0
3FFFFFC0
1FFFFF80
0FFFFE00
03FFFC00
007FC000
ENDCHAR
STARTCHAR 0039
ENCODING 57
SWIDTH 640 0
DWIDTH 32 0
BBX 27 35 2 -1
BITMAP
00FFE000
03FFF800
07FFFC00
1FFFFE00
1FFFFF00
3FFFFF80
7FC0FF80
7F803FC0
7F001FC0
7E001FC0
7E000FE0
FE000FE0
7E000FE0
7F001FE0
7F803FE0
7FC0FFE0
3FFFFFE0
3FFFFFE0
1FFFFFE0
0FFFFFE0
03FFE7E0
00FF8FE0
00000FE0
00000FC0
00001FC0
00001FC0
1C003FC0
3E007F80
7FC1FF80
7FFFFF00
7FFFFE00
3FFFFC00
1FFFF800
07FFE000
00FF8000
ENDCHAR
STARTCHAR 003A
ENCODING 58
SWIDTH 240 0
DWIDTH 12 0
BBX 7 22 2 1
BITMAP
7C
FE
FE
FE
FE
FE
7C
00
00
00
00
00
00
00
38
7E
FE
FE
FE
FE
7E
3C
ENDCHAR
STARTCHAR 003B
ENCODING 59
SWIDTH 240 0
DWIDTH 12 0
BBX 7 27 2 -5
BITMAP
7C
FE
FE
FE
FE
FE
7C
00
00
00
00
00
00
00
00
00
3C
7E
7E
7E
7E
7E
FE
FE
FC
FC
78
ENDCHAR
STARTCHAR 003F
ENCODING 63
SWIDTH 500 0
DWIDTH 25 0
BBX 22 35 1 -1
BITMAP
03FE00
0FFF80
1FFFC0
3FFFE0
7FFFF0
FFFFF8
FF07F8
FE03F8
7C01FC
7801FC
0001FC
0001FC
0001F8
0003F8
000FF8
003FF0
007FE0
00FFE0
00FF80
00FF00
00FE00
00FE00
00FE00
00FE00
007C00
003800
000000
000000
001800
007C00
00FE00
00FE00
00FE00
007E00
007C00
ENDCHAR
STARTCHAR 0041
ENCODING 65
SWIDTH 740 0
DWIDTH 37 0
BBX 35 35 1 -1
BITMAP
0000600000
0001F00000
0003F80000
0003F80000
0007FC0000
0007FC0000
000FFE0000
000FFE0000
001FFF0000
001FFF0000
003FBF8000
003FBF8000
007F1FC000
007F1FC000
00FE0FE000
00FE0FE000
01FC07F000
01FC07F000
03F807F800
03F803F800
07F003FC00
07F001FC00
0FFFFFFE00
0FFFFFFE00
1FFFFFFF00
1FFFFFFF00
3FFFFFFF80
3FFFFFFF80
7FFFFFFFC0
7F00001FC0
FF00000FE0
FE00000FE0
FE000007E0
FC000007E0
78000003C0
ENDCHAR
STARTCHAR 0042
ENCODING 66
SWIDTH 720 0
DWIDTH 36 0
BBX 31 35 3 0
BITMAP
3FFFF800
7FFFFE00
7FFFFF80
FFFFFFC0
FFFFFFC0
FFFFFFE0
FE001FE0
FE000FE0
FE0007F0
FE0007F0
FE0007F0
FE0007F0
FE000FE0
FE001FE0
FFFFFFC0
FFFFFFC0
FFFFFFC0
FFFFFFE0
FFFFFFF0
FFFFFFF8
FE0007FC
FE0001FC
FE0001FC
FE0001FE
FE0000FE
FE0001FE
FE0001FC
FE0003FC
FE0007FC
FFFFFFFC
FFFFFFF8
FFFFFFF0
FFFFFFE0
7FFFFFC0
3FFFFE00
ENDCHAR
STARTCHAR 0043
ENCODING 67
SWIDTH 700 0
DWIDTH 35 0
BBX 31 36 2 -1
BITMAP
0007FC00
003FFF80
00FFFFE0
01FFFFF0
03FFFFF8
07FFFFFC
0FFF9FFC
1FF001FC
1FE000FC
3FC00078
3F800000
7F000000
7F000000
7E000000
7E000000
FE000000
FC000000
FC000000
FC000000
FE000000
FE000000
FE000000
7E000000
7F000000
7F000000
7F800000
3F800038
3FC0007C
1FF001FE
0FFC07FE
0FFFFFFE
07FFFFFC
03FFFFF8
00FFFFF0
003FFFC0
0007FE00
ENDCHAR
STARTCHAR 0044
ENCODING 68
SWIDTH 760 0
DWIDTH 38 0
BBX 31 35 4 0
BITMAP
7FFFE000
FFFFFC00
FFFFFF00
FFFFFF80
FFFFFFC0
FFFFFFE0
FC007FF0
FC000FF8
FC0007F8
FC0003FC
FC0001FC
FC0001FE
FC0000FE
FC0000FE
FC0000FE
FC00007E
FC00007E
FC00007E
FC00007E
FC00007E
FC0000FE
FC0000FE
FC0000FE
FC0001FE
FC0001FC
FC0003FC
FC0007F8
FC000FF8
FC007FF0
FFFFFFE0
FFFFFFC0
FFFFFF80
FFFFFF00
FFFFFC00
7FFFE000
ENDCHAR
STARTCHAR 0045
ENCODING 69
SWIDTH 620 0
DWIDTH 31 0
BBX 26 35 3 0
BITMAP
0FFFFC00
7FFFFF00
7FFFFF80
FFFFFF80
FFFFFF80
FFFFFF00
FFFFFE00
FE000000
FE000000
FE000000
FE000000
FE000000
FE000000
FE000000
FFFFF000
FFFFFC00
FFFFFE00
FFFFFE00
FFFFFE00
FFFFFE00
FFFFFC00
FE000000
FE000000
FE000000
FE000000
FE000000
FE000000
FE000000
FFFFFE00
FFFFFF80
FFFFFFC0
FFFFFFC0
FFFFFFC0
7FFFFF80
3FFFFF00
ENDCHAR
STARTCHAR 0046
ENCODING 70
SWIDTH 600 0
DWIDTH 30 0
BBX 25 35 3 0
BITMAP
0FFFFC00
7FFFFF00
7FFFFF80
FFFFFF80
FFFFFF80
FFFFFF00
FFFFFE00
FE000000
FE000000
FE000000
FE000000
FE000000
FE000000
FE000000
FE000000
FFFFF800
FFFFFE00
FFFFFE00
FFFFFE00
FFFFFE00
FFFFFC00
FFFFF000
FE000000
FE000000
FE000000
FE000000
FE000000
FE000000
FE000000
FE000000
FE000000
FE000000
FE000000
7E000000
3C000000
ENDCHAR
STARTCHAR 0047
ENCODING 71
SWIDTH 760 0
DWIDTH 38 0
BBX 31 36 3 -1
BITMAP
0003FC00
001FFF80
007FFFE0
01FFFFF8
03FFFFFC
07FFFFFC
0FFE07FE
1FF801FC
1FE000FC
3FC00078
7F800000
7F000000
7F000000
FE000000
FE000000
FE000000
FC00FFFC
FC01FFFE
FC01FFFE
FC01FFFE
FC01FFFE
FE00FFFE
FE00007E
FE00007E
7F00007E
7F00007E
7F80007E
3FC0007E
3FF000FE
1FFC03FE
0FFFFFFE
07FFFFFC
03FFFFF8
01FFFFF0
007FFF80
0007FC00
ENDCHAR
STARTCHAR 0048
ENCODING 72
SWIDTH 720 0
DWIDTH 36 0
BBX 29 35 4 0
BITMAP
780000F0
FC0001F8
FC0001F8
FC0003F8
FC0003F8
FC0003F8
FC0003F8
FC0003F8
FC0003F8
FC0003F8
FC0003F8
FC0003F8
FC0003F8
FC0003F8
FFFFFFF8
FFFFFFF8
FFFFFFF8
FFFFFFF8
FFFFFFF8
FFFFFFF8
FFFFFFF8
FC0003F8
FC0003F8
FC0003F8
FC0003F8
FC0003F8
FC0003F8
FC0003F8
FC0003F8
FC0003F8
FC0003F8
FC0003F8
FC0001F8
FC0001F8
780000F0
ENDCHAR
STARTCHAR 0049
ENCODING 73
SWIDTH 280 0
DWIDTH 14 0
BBX 6 35 4 0
BITMAP
38
7C
FC
FC
FC
FC
FC
FC
FC
FC
FC
FC
FC
FC
FC
FC
FC
FC
FC
FC
FC
FC
FC
FC
FC
FC
FC
FC
FC
FC
FC
FC
FC
FC
78
ENDCHAR
STARTCHAR 004A
ENCODING 74
SWIDTH 600 0
DWIDTH 30 0
BBX 24 35 2 1
BITMAP
00003E
00003F
00007F
00007F
00007F
00007F
00007F
00007F
00007F
00007F
00007F
00007F
00007F
00007F
00007F
00007F
00007F
00007F
00007F
00007F
00007F
00007F
00007F
00007F
00007F
78007F
FC00FE
FF00FE
FFC7FE
FFFFFC
7FFFFC
3FFFF8
1FFFF0
07FFC0
01FF00
ENDCHAR
STARTCHAR 004B
ENCODING 75
SWIDTH 660 0
DWIDTH 33 0
BBX 28 35 4 -1
BITMAP
70000300
FC000FC0
FC001FC0
FC003FC0
FC007FC0
FC00FF80
FC01FF80
FC03FF00
FC07FE00
FC07FC00
FC0FF800
FC1FF000
FC3FE000
FC7FC000
FCFF8000
FDFF0000
FFFF0000
FFFF8000
FFFFC000
FFFFE000
FFDFF000
FF8FF000
FF07F800
FE03FC00
FE01FE00
FC01FF00
FC00FF80
FC007F80
FC003FC0
FC001FE0
FC001FF0
FC000FF0
FC0007F0
FC0003F0
780001E0
ENDCHAR
STARTCHAR 004C
ENCODING 76
SWIDTH 580 0
DWIDTH 29 0
BBX 23 35 4 0
BITMAP
700000
F80000
FC0000
FC0000
FC0000
FC0000
FC0000
FC0000
FC0000
FC0000
FC0000
FC0000
FC0000
FC0000
FC0000
FC0000
FC0000
FC0000
FC0000
FC0000
FC0000
FC0000
FC0000
FC0000
FC0000
FC0000
FC0000
FC0000
FFFFE0
FFFFFC
FFFFFE
FFFFFE
FFFFFE
FFFFFC
7FFFF8
ENDCHAR
STARTCHAR 004D
ENCODING 77
SWIDTH 820 0
DWIDTH 41 0
BBX 34 35 4 1
BITMAP
7000000700
F800000F80
FC00001FC0
FE00003FC0
FF00003FC0
FF00007FC0
FF8000FFC0
FFC001FFC0
FFE001FFC0
FFE003FFC0
FFF007FFC0
FFF80FFFC0
FFFC0FFFC0
FFFC1FEFC0
FDFE3FCFC0
FCFF3FCFC0
FC7FFF8FC0
FC7FFF0FC0
FC3FFE0FC0
FC1FFE0FC0
FC1FFC0FC0
FC0FF80FC0
FC07F00FC0
FC03E00FC0
FC03C00FC0
FC00000FC0
FC00000FC0
FC00000FC0
FC00000FC0
FC00000FC0
FC00000FC0
FC00000FC0
FC00000FC0
FC00000F80
7000000700
ENDCHAR
STARTCHAR 004E
ENCODING 78
SWIDTH 740 0
DWIDTH 37 0
BBX 29 35 4 0
BITMAP
200000F0
F80001F8
FC0001F8
FE0001F8
FF0001F8
FF8001F8
FFC001F8
FFC001F8
FFE001F8
FFF001F8
FFF801F8
FFFC01F8
FFFC01F8
FDFE01F8
FCFF01F8
FC7F81F8
FC7FC1F8
FC3FC1F8
FC1FE1F8
FC0FF1F8
FC07F9F8
FC07FDF8
FC03FDF8
FC01FFF8
FC00FFF8
FC00FFF8
FC007FF8
FC003FF8
FC001FF8
FC000FF8
FC000FF8
FC0007F8
FC0003F8
FC0001F8
780000F0
ENDCHAR
STARTCHAR 004F
ENCODING 79
SWIDTH 840 0
DWIDTH 42 0
BBX 37 37 2 -1
BITMAP
0001FE0000
001FFFC000
007FFFF000
00FFFFFC00
03FFFFFE00
07FFFFFF00
0FFFFFFF80
0FFC01FFC0
1FF0007FC0
3FE0001FE0
3FC0000FE0
3F80000FF0
7F000007F0
7F000007F0
7E000003F8
7E000003F8
FE000003F8
FE000003F8
FE000003F8
FE000003F8
FE000003F8
FE000003F8
7E000003F8
7F000003F0
7F000007F0
7F800007F0
3F80000FF0
3FC0001FE0
1FF0003FE0
1FF800FFC0
0FFF03FF80
07FFFFFF00
03FFFFFE00
01FFFFFC00
007FFFF000
001FFFC000
0003FE0000
ENDCHAR
STARTCHAR 0050
ENCODING 80
SWIDTH 660 0
DWIDTH 33 0
BBX 27 35 4 0
BITMAP
7FFFC000
FFFFF800
FFFFFC00
FFFFFE00
FFFFFF00
FFFFFF80
FC00FFC0
FC003FC0
FC001FC0
FC000FE0
FC000FE0
FC000FE0
FC000FE0
FC000FE0
FC000FE0
FC000FE0
FC001FC0
FC003FC0
FC00FFC0
FFFFFF80
FFFFFF00
FFFFFE00
FFFFFC00
FFFFF800
FFFFC000
FC000000
FC000000
FC000000
FC000000
FC000000
FC000000
FC000000
FC000000
FC000000
78000000
ENDCHAR
STARTCHAR 0051
ENCODING 81
SWIDTH 840 0
DWIDTH 42 0
BBX 37 37 2 -3
BITMAP
0001FF0000
000FFFE000
007FFFF800
00FFFFFC00
03FFFFFE00
07FFFFFF80
0FFFFFFF80
0FFC00FFC0
1FF0003FE0
3FE0001FE0
3FC0000FF0
7F800007F0
7F000007F8
7F000003F8
7E000003F8
FE000001F8
FE000001F8
FE000001F8
FE000401F8
FE001E01F8
FE003F01F8
FE003F81F8
FF003FC3F8
7F003FE3F8
7F801FF3F8
7F800FFFF0
3FC007FFF0
3FE003FFE0
1FF001FFE0
1FFC00FFC0
0FFFFFFFC0
07FFFFFFE0
03FFFFFFF0
00FFFFFFF0
007FFFF7F0
001FFFE3E0
0001FF00C0
ENDCHAR
STARTCHAR 0052
ENCODING 82
SWIDTH 680 0
DWIDTH 34 0
BBX 28 35 4 -2
BITMAP
7FFFE000
FFFFFC00
FFFFFE00
FFFFFF00
FFFFFF80
FFFFFFC0
FC003FC0
FC001FC0
FC000FE0
FC0007E0
FC0007E0
FC0007E0
FC0007E0
FC0007E0
FC000FE0
FC001FC0
FC003FC0
FFFFFFC0
FFFFFF80
FFFFFF00
FFFFFE00
FFFFF800
FFFFF800
FC01FC00
FC01FE00
FC00FF00
FC007F00
FC007F80
FC003FC0
FC001FE0
FC001FF0
FC000FF0
FC0007F0
FC0007E0
780001E0
ENDCHAR
STARTCHAR 0053
ENCODING 83
SWIDTH 640 0
DWIDTH 32 0
BBX 27 37 2 0
BITMAP
007FE000
03FFFC00
07FFFE00
0FFFFF00
1FFFFF80
3FFFFF80
3F803F80
7F000F00
7F000000
7E000000
7E000000
7F000000
7F000000
7FC00000
3FF00000
3FFF0000
1FFFE000
0FFFFC00
03FFFE00
00FFFF80
000FFFC0
0001FFC0
00003FE0
00001FE0
00000FE0
000007E0
000007E0
100007E0
7C000FE0
7F001FE0
FFE07FC0
FFFFFFC0
7FFFFF80
3FFFFF00
1FFFFE00
07FFF800
00FFC000
ENDCHAR
STARTCHAR 0054
ENCODING 84
SWIDTH 640 0
DWIDTH 32 0
BBX 30 35 1 -1
BITMAP
7FFFFFF8
FFFFFFFC
FFFFFFFC
FFFFFFFC
FFFFFFFC
7FFFFFF8
000FE000
000FE000
000FE000
000FE000
000FE000
000FE000
000FE000
000FE000
000FE000
000FE000
000FE000
000FE000
000FE000
000FE000
000FE000
000FE000
000FE000
000FE000
000FE000
000FE000
000FE000
000FE000
000FE000
000FE000
000FE000
000FE000
000FC000
000FC000
00078000
ENDCHAR
STARTCHAR 0055
ENCODING 85
SWIDTH 740 0
DWIDTH 37 0
BBX 31 36 3 -5
BITMAP
18000038
7C00007C
7E0000FC
FE0000FE
FE0000FE
FE0000FE
FE0000FE
FE0000FE
FE0000FE
FE0000FE
FE0000FE
FE0000FE
FE0000FE
FE0000FE
FE0000FE
FE0000FE
FE0000FE
FE0000FE
FE0000FE
FE0000FE
FE0000FE
FE0000FE
FE0000FE
7E0000FE
7F0000FC
7F0001FC
7F8001FC
3FC007FC
3FF00FF8
1FFFFFF0
1FFFFFF0
0FFFFFE0
07FFFFC0
01FFFF00
007FFC00
000FE000
ENDCHAR
STARTCHAR 0056
ENCODING 86
SWIDTH 720 0
DWIDTH 36 0
BBX 33 35 1 0
BITMAP
3800000700
7C00001F80
FE00001F80
FE00003F80
FF00003F80
7F00003F80
7F80007F00
3F80007F00
3FC000FE00
1FC000FE00
1FC001FE00
0FE001FC00
0FE003FC00
07F003F800
07F003F800
03F807F000
03F807F000
03FC0FE000
01FC0FE000
01FC1FC000
00FE1FC000
00FE1FC000
007F3F8000
007F3F8000
003FFF0000
003FFF0000
001FFE0000
001FFE0000
000FFC0000
000FFC0000
0007F80000
0007F80000
0003F80000
0003F00000
0001E00000
ENDCHAR
STARTCHAR 0057
ENCODING 87
SWIDTH 1060 0
DWIDTH 53 0
BBX 51 35 1 2
BITMAP
3C0000F00003C0
7C0001F00007E0
FE0001F80007E0
FE0003F8000FE0
7F0003FC000FE0
7F0003FC000FE0
7F0007FE001FC0
3F8007FE001FC0
3F800FFE001F80
3F800FFF003F80
1FC01FFF003F80
1FC01FFF803F00
1FC01FBF807F00
0FE03FBFC07F00
0FE03F9FC0FE00
0FE07F1FC0FE00
07F07F1FE0FC00
07F0FE0FE1FC00
03F8FE0FF1FC00
03F9FC07F1F800
03F9FC07F3F800
01FDFC03FBF800
01FFF803FBF000
01FFF803FFF000
00FFF001FFF000
00FFF001FFE000
00FFE000FFE000
007FE000FFC000
007FE0007FC000
007FC0007FC000
003FC0003F8000
003F80003F8000
001F80001F8000
001F00001F0000
000E00000E0000
ENDCHAR
STARTCHAR 0058
ENCODING 88
SWIDTH 640 0
DWIDTH 32 0
BBX 31 35 1 0
BITMAP
18000070
7E0000F8
7E0001F8
7F0003FC
7F8003FC
7FC007F8
3FE00FF0
1FE01FE0
0FF03FC0
07F83FC0
03FC7F80
03FEFF00
01FFFE00
00FFFC00
007FFC00
003FF800
003FF000
003FF000
003FF800
007FFC00
00FFFC00
01FFFE00
01FEFF00
03FC7F80
07F87FC0
0FF03FC0
1FF01FE0
1FE00FF0
3FC007F8
7F8007FC
FF8003FC
FF0001FE
FE0000FE
7C0000FC
38000038
ENDCHAR
STARTCHAR 0059
ENCODING 89
SWIDTH 640 0
DWIDTH 32 0
BBX 30 35 1 1
BITMAP
30000020
7C0000F8
FC0001FC
FE0003FC
FF0003FC
7F0007F8
7F800FF0
3FC00FF0
1FC01FE0
1FE03FC0
0FF03FC0
07F07F80
07F8FF00
03FCFE00
01FDFE00
01FFFC00
00FFF800
007FF800
007FF000
003FE000
001FE000
001FC000
001FC000
001FC000
001FC000
001FC000
001FC000
001FC000
001FC000
001FC000
001FC000
001FC000
001FC000
000FC000
00078000
ENDCHAR
STARTCHAR 005A
ENCODING 90
SWIDTH 620 0
DWIDTH 31 0
BBX 28 35 1 0
BITMAP
3FFFFFC0
7FFFFFE0
7FFFFFE0
7FFFFFE0
7FFFFFE0
3FFFFFE0
00003FC0
00007F80
00007F00
0000FF00
0001FE00
0003FC00
0003F800
0007F800
000FF000
001FE000
001FC000
003FC000
007F8000
00FF0000
00FE0000
01FC0000
03FC0000
07F80000
07F00000
0FE00000
1FE00000
3FC00000
3F800000
7FFFFFE0
FFFFFFF0
FFFFFFF0
FFFFFFF0
FFFFFFF0
7FFFFFE0
ENDCHAR
STARTCHAR 005C
ENCODING 92
SWIDTH 500 0
DWIDTH 25 0
BBX 23 35 1 0
BITMAP
700000
F80000
FC0000
FC0000
FE0000
FF0000
7F0000
3F8000
3F8000
1FC000
1FC000
0FE000
07F000
07F000
03F800
03F800
01FC00
00FE00
00FE00
007F00
007F00
003F80
001FC0
001FC0
000FE0
000FE0
0007F0
0007F8
0003F8
0001FC
0001FC
0000FE
0000FE
00007E
00003C
ENDCHAR
STARTCHAR 005F
ENCODING 95
SWIDTH 600 0
DWIDTH 30 0
BBX 24 6 3 -6
BITMAP
7FFFFE
FFFFFF
FFFFFF
FFFFFF
FFFFFF
7FFFFE
ENDCHAR
STARTCHAR 0060
ENCODING 96
SWIDTH 320 0
DWIDTH 16 0
BBX 11 9 2 26
BITMAP
7800
7C00
FF00
FF80
7FC0
3FE0
1FE0
07E0
01C0
ENDCHAR
STARTCHAR 0061
ENCODING 97
SWIDTH 740 0
DWIDTH 37 0
BBX 35 35 1 -1
BITMAP
0000600000
0001F00000
0003F80000
0003F80000
0007FC0000
0007FC0000
000FFE0000
000FFE0000
001FFF0000
001FFF0000
003FBF8000
003FBF8000
007F1FC000
007F1FC000
00FE0FE000
00FE0FE000
01FC07F000
01FC07F000
03F807F800
03F803F800
07F003FC00
07F001FC00
0FFFFFFE00
0FFFFFFE00
1FFFFFFF00
1FFFFFFF00
3FFFFFFF80
3FFFFFFF80
7FFFFFFFC0
7F00001FC0
FF00000FE0
FE00000FE0
FE000007E0
FC000007E0
78000003C0
ENDCHAR
STARTCHAR 0062
ENCODING 98
SWIDTH 720 0
DWIDTH 36 0
BBX 31 35 3 0
BITMAP
3FFFF800
7FFFFE00
7FFFFF80
FFFFFFC0
FFFFFFC0
FFFFFFE0
FE001FE0
FE000FE0
FE0007F0
FE0007F0
FE0007F0
FE0007F0
FE000FE0
FE001FE0
FFFFFFC0
FFFFFFC0
FFFFFFC0
FFFFFFE0
FFFFFFF0
FFFFFFF8
FE0007FC
FE0001FC
FE0001FC
FE0001FE
FE0000FE
FE0001FE
FE0001FC
FE0003FC
FE0007FC
FFFFFFFC
FFFFFFF8
FFFFFFF0
FFFFFFE0
7FFFFFC0
3FFFFE00
ENDCHAR
STARTCHAR 0063
ENCODING 99
SWIDTH 700 0
DWIDTH 35 0
BBX 31 36 2 -1
BITMAP
0007FC00
003FFF80
00FFFFE0
01FFFFF0
03FFFFF8
07FFFFFC
0FFF9FFC
1FF001FC
1FE000FC
3FC00078
3F800000
7F000000
7F000000
7E000000
7E000000
FE000000
FC000000
FC000000
FC000000
FE000000
FE000000
FE000000
7E000000
7F000000
7F000000
7F800000
3F800038
3FC0007C
1FF001FE
0FFC07FE
0FFFFFFE
07FFFFFC
03FFFFF8
00FFFFF0
003FFFC0
0007FE00
ENDCHAR
STARTCHAR 0064
ENCODING 100
SWIDTH 760 0
DWIDTH 38 0
BBX 31 35 4 0
BITMAP
7FFFE000
FFFFFC00
FFFFFF00
FFFFFF80
FFFFFFC0
FFFFFFE0
FC007FF0
FC000FF8
FC0007F8
FC0003FC
FC0001FC
FC0001FE
FC0000FE
FC0000FE
FC0000FE
FC00007E
FC00007E
FC00007E
FC00007E
FC00007E
FC0000FE
FC0000FE
FC0000FE
FC0001FE
FC0001FC
FC0003FC
FC0007F8
FC000FF8
FC007FF0
FFFFFFE0
FFFFFFC0
FFFFFF80
FFFFFF00
FFFFFC00
7FFFE000
ENDCHAR
STARTCHAR 0065
ENCODING 101
SWIDTH 620 0
DWIDTH 31 0
BBX 26 35 3 0
BITMAP
0FFFFC00
7FFFFF00
7FFFFF80
FFFFFF80
FFFFFF80
FFFFFF00
FFFFFE00
FE000000
FE000000
FE000000
FE000000
FE000000
FE000000
FE000000
FFFFF000
FFFFFC00
FFFFFE00
FFFFFE00
FFFFFE00
FFFFFE00
FFFFFC00
FE000000
FE000000
FE000000
FE000000
FE000000
FE000000
FE000000
FFFFFE00
FFFFFF80
FFFFFFC0
FFFFFFC0
FFFFFFC0
7FFFFF80
3FFFFF00
ENDCHAR
STARTCHAR 0066
ENCODING 102
SWIDTH 600 0
DWIDTH 30 0
BBX 25 35 3 0
BITMAP
0FFFFC00
7FFFFF00
7FFFFF80
FFFFFF80
FFFFFF80
FFFFFF00
FFFFFE00
FE000000
FE000000
FE000000
FE000000
FE000000
FE000000
FE000000
FE000000
FFFFF800
FFFFFE00
FFFFFE00
FFFFFE00
FFFFFE00
FFFFFC00
FFFFF000
FE000000
FE000000
FE000000
FE000000
FE000000
FE000000
FE000000
FE000000
FE000000
FE000000
FE000000
7E000000
3C000000
ENDCHAR
STARTCHAR 0067
ENCODING 103
SWIDTH 760 0
DWIDTH 38 0
BBX 31 36 3 -1
BITMAP
0003FC00
001FFF80
007FFFE0
01FFFFF8
03FFFFFC
07FFFFFC
0FFE07FE
1FF801FC
1FE000FC
3FC00078
7F800000
7F000000
7F000000
FE000000
FE000000
FE000000
FC00FFFC
FC01FFFE
FC01FFFE
FC01FFFE
FC01FFFE
FE00FFFE
FE00007E
FE00007E
7F00007E
7F00007E
7F80007E
3FC0007E
3FF000FE
1FFC03FE
0FFFFFFE
07FFFFFC
03FFFFF8
01FFFFF0
007FFF80
0007FC00
ENDCHAR
STARTCHAR 0068
ENCODING 104
SWIDTH 720 0
DWIDTH 36 0
BBX 29 35 4 0
BITMAP
780000F0
FC0001F8
FC0001F8
FC0003F8
FC0003F8
FC0003F8
FC0003F8
FC0003F8
FC0003F8
FC0003F8
FC0003F8
FC0003F8
FC0003F8
FC0003F8
FFFFFFF8
FFFFFFF8
FFFFFFF8
FFFFFFF8
FFFFFFF8
FFFFFFF8
FFFFFFF8
FC0003F8
FC0003F8
FC0003F8
FC0003F8
FC0003F8
FC0003F8
FC0003F8
FC0003F8
FC0003F8
FC0003F8
FC0003F8
FC0001F8
FC0001F8
780000F0
ENDCHAR
STARTCHAR 0069
ENCODING 105
SWIDTH 280 0
DWIDTH 14 0
BBX 6 35 4 0
BITMAP
38
7C
FC
FC
FC
FC
FC
FC
FC
FC
FC
FC
FC
FC
FC
FC
FC
FC
FC
FC
FC
FC
FC
FC
FC
FC
FC
FC
FC
FC
FC
FC
FC
FC
78
ENDCHAR
STARTCHAR 006A
ENCODING 106
SWIDTH 600 0
DWIDTH 30 0
BBX 24 35 2 1
BITMAP
00003E
00003F
00007F
00007F
00007F
00007F
00007F
00007F
00007F
00007F
00007F
00007F
00007F
00007F
00007F
00007F
00007F
00007F
00007F
00007F
00007F
00007F
00007F
00007F
00007F
78007F
FC00FE
FF00FE
FFC7FE
FFFFFC
7FFFFC
3FFFF8
1FFFF0
07FFC0
01FF00
ENDCHAR
STARTCHAR 006B
ENCODING 107
SWIDTH 680 0
DWIDTH 34 0
BBX 28 35 4 -1
BITMAP
70000300
FC000FC0
FC001FC0
FC003FC0
FC007FC0
FC00FF80
FC01FF80
FC03FF00
FC07FE00
FC07FC00
FC0FF800
FC1FF000
FC3FE000
FC7FC000
FCFF8000
FDFF0000
FFFF0000
FFFF8000
FFFFC000
FFFFE000
FFDFF000
FF8FF000
FF07F800
FE03FC00
FE01FE00
FC01FF00
FC00FF80
FC007F80
FC003FC0
FC001FE0
FC001FF0
FC000FF0
FC0007F0
FC0003F0
780001E0
ENDCHAR
STARTCHAR 006C
ENCODING 108
SWIDTH 580 0
DWIDTH 29 0
BBX 23 35 4 0
BITMAP
700000
F80000
FC0000
FC0000
FC0000
FC0000
FC0000
FC0000
FC0000
FC0000
FC0000
FC0000
FC0000
FC0000
FC0000
FC0000
FC0000
FC0000
FC0000
FC0000
FC0000
FC0000
FC0000
FC0000
FC0000
FC0000
FC0000
FC0000
FFFFE0
FFFFFC
FFFFFE
FFFFFE
FFFFFE
FFFFFC
7FFFF8
ENDCHAR
STARTCHAR 006D
ENCODING 109
SWIDTH 820 0
DWIDTH 41 0
BBX 34 35 4 1
BITMAP
7000000700
F800000F80
FC00001FC0
FE00003FC0
FF00003FC0
FF00007FC0
FF8000FFC0
FFC001FFC0
FFE001FFC0
FFE003FFC0
FFF007FFC0
FFF80FFFC0
FFFC0FFFC0
FFFC1FEFC0
FDFE3FCFC0
FCFF3FCFC0
FC7FFF8FC0
FC7FFF0FC0
FC3FFE0FC0
FC1FFE0FC0
FC1FFC0FC0
FC0FF80FC0
FC07F00FC0
FC03E00FC0
FC03C00FC0
FC00000FC0
FC00000FC0
FC00000FC0
FC00000FC0
FC00000FC0
FC00000FC0
FC00000FC0
FC00000FC0
FC00000F80
7000000700
ENDCHAR
STARTCHAR 006E
ENCODING 110
SWIDTH 740 0
DWIDTH 37 0
BBX 29 35 4 0
BITMAP
200000F0
F80001F8
FC0001F8
FE0001F8
FF0001F8
FF8001F8
FFC001F8
FFC001F8
FFE001F8
FFF001F8
FFF801F8
FFFC01F8
FFFC01F8
FDFE01F8
FCFF01F8
FC7F81F8
FC7FC1F8
FC3FC1F8
FC1FE1F8
FC0FF1F8
FC07F9F8
FC07FDF8
FC03FDF8
FC01FFF8
FC00FFF8
FC00FFF8
FC007FF8
FC003FF8
FC001FF8
FC000FF8
FC000FF8
FC0007F8
FC0003F8
FC0001F8
780000F0
ENDCHAR
STARTCHAR 006F
ENCODING 111
SWIDTH 840 0
DWIDTH 42 0
BBX 37 37 2 -1
BITMAP
0001FE0000
001FFFC000
007FFFF000
00FFFFFC00
03FFFFFE00
07FFFFFF00
0FFFFFFF80
0FFC01FFC0
1FF0007FC0
3FE0001FE0
3FC0000FE0
3F80000FF0
7F000007F0
7F000007F0
7E000003F8
7E000003F8
FE000003F8
FE000003F8
FE000003F8
FE000003F8
FE000003F8
FE000003F8
7E000003F8
7F000003F0
7F000007F0
7F800007F0
3F80000FF0
3FC0001FE0
1FF0003FE0
1FF800FFC0
0FFF03FF80
07FFFFFF00
03FFFFFE00
01FFFFFC00
007FFFF000
001FFFC000
0003FE0000
ENDCHAR
STARTCHAR 0070
ENCODING 112
SWIDTH 660 0
DWIDTH 33 0
BBX 27 35 4 0
BITMAP
7FFFC000
FFFFF800
FFFFFC00
FFFFFE00
FFFFFF00
FFFFFF80
FC00FFC0
FC003FC0
FC001FC0
FC000FE0
FC000FE0
FC000FE0
FC000FE0
FC000FE0
FC000FE0
FC000FE0
FC001FC0
FC003FC0
FC00FFC0
FFFFFF80
FFFFFF00
FFFFFE00
FFFFFC00
FFFFF800
FFFFC000
FC000000
FC000000
FC000000
FC000000
FC000000
FC000000
FC000000
FC000000
FC000000
78000000
ENDCHAR
STARTCHAR 0071
ENCODING 113
SWIDTH 840 0
DWIDTH 42 0
BBX 37 37 2 -3
BITMAP
0001FF0000
000FFFE000
007FFFF800
00FFFFFC00
03FFFFFE00
07FFFFFF80
0FFFFFFF80
0FFC00FFC0
1FF0003FE0
3FE0001FE0
3FC0000FF0
7F800007F0
7F000007F8
7F000003F8
7E000003F8
FE000001F8
FE000001F8
FE000001F8
FE000401F8
FE001E01F8
FE003F01F8
FE003F81F8
FF003FC3F8
7F003FE3F8
7F801FF3F8
7F800FFFF0
3FC007FFF0
3FE003FFE0
1FF001FFE0
1FFC00FFC0
0FFFFFFFC0
07FFFFFFE0
03FFFFFFF0
00FFFFFFF0
007FFFF7F0
001FFFE3E0
0001FF00C0
ENDCHAR
STARTCHAR 0072
ENCODING 114
SWIDTH 680 0
DWIDTH 34 0
BBX 28 35 4 -2
BITMAP
7FFFE000
FFFFFC00
FFFFFE00
FFFFFF00
FFFFFF80
FFFFFFC0
FC003FC0
FC001FC0
FC000FE0
FC0007E0
FC0007E0
FC0007E0
FC0007E0
FC0007E0
FC000FE0
FC001FC0
FC003FC0
FFFFFFC0
FFFFFF80
FFFFFF00
FFFFFE00
FFFFF800
FFFFF800
FC01FC00
FC01FE00
FC00FF00
FC007F00
FC007F80
FC003FC0
FC001FE0
FC001FF0
FC000FF0
FC0007F0
FC0007E0
780001E0
ENDCHAR
STARTCHAR 0073
ENCODING 115
SWIDTH 640 0
DWIDTH 32 0
BBX 27 37 2 0
BITMAP
007FE000
03FFFC00
07FFFE00
0FFFFF00
1FFFFF80
3FFFFF80
3F803F80
7F000F00
7F000000
7E000000
7E000000
7F000000
7F000000
7FC00000
3FF00000
3FFF0000
1FFFE000
0FFFFC00
03FFFE00
00FFFF80
000FFFC0
0001FFC0
00003FE0
00001FE0
00000FE0
000007E0
000007E0
100007E0
7C000FE0
7F001FE0
FFE07FC0
FFFFFFC0
7FFFFF80
3FFFFF00
1FFFFE00
07FFF800
00FFC000
ENDCHAR
STARTCHAR 0074
ENCODING 116
SWIDTH 640 0
DWIDTH 32 0
BBX 30 35 1 -1
BITMAP
7FFFFFF8
FFFFFFFC
FFFFFFFC
FFFFFFFC
FFFFFFFC
7FFFFFF8
000FE000
000FE000
000FE000
000FE000
000FE000
000FE000
000FE000
000FE000
000FE000
000FE000
000FE000
000FE000
000FE000
000FE000
000FE000
000FE000
000FE000
000FE000
000FE000
000FE000
000FE000
000FE000
000FE000
000FE000
000FE000
000FE000
000FC000
000FC000
00078000
ENDCHAR
STARTCHAR 0075
ENCODING 117
SWIDTH 740 0
DWIDTH 37 0
BBX 31 36 3 -5
BITMAP
18000038
7C00007C
7E0000FC
FE0000FE
FE0000FE
FE0000FE
FE0000FE
FE0000FE
FE0000FE
FE0000FE
FE0000FE
FE0000FE
FE0000FE
FE0000FE
FE0000FE
FE0000FE
FE0000FE
FE0000FE
FE0000FE
FE0000FE
FE0000FE
FE0000FE
FE0000FE
7E0000FE
7F0000FC
7F0001FC
7F8001FC
3FC007FC
3FF00FF8
1FFFFFF0
1FFFFFF0
0FFFFFE0
07FFFFC0
01FFFF00
007FFC00
000FE000
ENDCHAR
STARTCHAR 0076
ENCODING 118
SWIDTH 720 0
DWIDTH 36 0
BBX 33 35 1 0
BITMAP
3800000700
7C00001F80
FE00001F80
FE00003F80
FF00003F80
7F00003F80
7F80007F00
3F80007F00
3FC000FE00
1FC000FE00
1FC001FE00
0FE001FC00
0FE003FC00
07F003F800
07F003F800
03F807F000
03F807F000
03FC0FE000
01FC0FE000
01FC1FC000
00FE1FC000
00FE1FC000
007F3F8000
007F3F8000
003FFF0000
003FFF0000
001FFE0000
001FFE0000
000FFC0000
000FFC0000
0007F80000
0007F80000
0003F80000
0003F00000
0001E00000
ENDCHAR
STARTCHAR 0077
ENCODING 119
SWIDTH 1060 0
DWIDTH 53 0
BBX 51 35 1 2
BITMAP
3C0000F00003C0
7C0001F00007E0
FE0001F80007E0
FE0003F8000FE0
7F0003FC000FE0
7F0003FC000FE0
7F0007FE001FC0
3F8007FE001FC0
3F800FFE001F80
3F800FFF003F80
1FC01FFF003F80
1FC01FFF803F00
1FC01FBF807F00
0FE03FBFC07F00
0FE03F9FC0FE00
0FE07F1FC0FE00
07F07F1FE0FC00
07F0FE0FE1FC00
03F8FE0FF1FC00
03F9FC07F1F800
03F9FC07F3F800
01FDFC03FBF800
01FFF803FBF000
01FFF803FFF000
00FFF001FFF000
00FFF001FFE000
00FFE000FFE000
007FE000FFC000
007FE0007FC000
007FC0007FC000
003FC0003F8000
003F80003F8000
001F80001F8000
001F00001F0000
000E00000E0000
ENDCHAR
STARTCHAR 0078
ENCODING 120
SWIDTH 640 0
DWIDTH 32 0
BBX 31 35 1 0
BITMAP
18000070
7E0000F8
7E0001F8
7F0003FC
7F8003FC
7FC007F8
3FE00FF0
1FE01FE0
0FF03FC0
07F83FC0
03FC7F80
03FEFF00
01FFFE00
00FFFC00
007FFC00
003FF800
003FF000
003FF000
003FF800
007FFC00
00FFFC00
01FFFE00
01FEFF00
03FC7F80
07F87FC0
0FF03FC0
1FF01FE0
1FE00FF0
3FC007F8
7F8007FC
FF8003FC
FF0001FE
FE0000FE
7C0000FC
38000038
ENDCHAR
STARTCHAR 0079
ENCODING 121
SWIDTH 640 0
DWIDTH 32 0
BBX 31 35 1 1
BITMAP
38000038
FC00007C
FE0000FE
FE0001FE
FF0001FC
7F8003FC
7F8007F8
3FC00FF0
1FE00FF0
1FE01FE0
0FF03FC0
07F83F80
07F87F80
03FCFF00
01FEFE00
00FFFE00
00FFFC00
007FF800
003FF000
003FF000
001FE000
000FC000
000FC000
000FC000
000FC000
000FC000
000FC000
000FC000
000FC000
000FC000
000FC000
000FC000
000FC000
000FC000
00078000
ENDCHAR
STARTCHAR 007A
ENCODING 122
SWIDTH 620 0
DWIDTH 31 0
BBX 28 35 1 0
BITMAP
3FFFFFC0
7FFFFFE0
7FFFFFE0
7FFFFFE0
7FFFFFE0
3FFFFFE0
00003FC0
00007F80
00007F00
0000FF00
0001FE00
0003FC00
0003F800
0007F800
000FF000
001FE000
001FC000
003FC000
007F8000
00FF0000
00FE0000
01FC0000
03FC0000
07F80000
07F00000
0FE00000
1FE00000
3FC00000
3F800000
7FFFFFE0
FFFFFFF0
FFFFFFF0
FFFFFFF0
FFFFFFF0
7FFFFFE0
ENDCHAR
STARTCHAR 00A1
ENCODING 161
SWIDTH 300 0
DWIDTH 15 0
BBX 7 36 4 -10
BITMAP
10
7C
FE
FE
FE
FE
FE
7C
00
00
00
00
38
7C
FE
FE
FE
FE
FE
FE
FE
FE
FE
FE
FE
FE
FE
FE
FE
FE
FE
FE
FE
FE
FE
7C
ENDCHAR
STARTCHAR 00A3
ENCODING 163
SWIDTH 640 0
DWIDTH 32 0
BBX 30 35 2 0
BITMAP
0007F800
001FFE00
007FFF00
00FFFF80
01FFFFC0
01FFFFE0
03FE3FE0
03F80FE0
03F807C0
07F00180
07F00000
07F00000
07F00000
07F00000
07F00000
7FFFFE00
FFFFFF00
FFFFFF00
FFFFFF00
FFFFFF00
7FFFFE00
07F00000
07F00000
07F00000
07F00000
07F00000
07F00000
07F00000
1FFFFFE0
7FFFFFF8
FFFFFFF8
FFFFFFFC
FFFFFFF8
FFFFFFF8
3FFFFFF0
ENDCHAR
STARTCHAR 00A8
ENCODING 168
SWIDTH 480 0
DWIDTH 24 0
BBX 20 8 2 27
BITMAP
7C03C0
FE07E0
FE0FE0
FE0FF0
FE0FF0
FE0FE0
7C07E0
100100
ENDCHAR
STARTCHAR 00AF
ENCODING 175
SWIDTH 420 0
DWIDTH 21 0
BBX 16 5 2 30
BITMAP
7FFE
7FFF
FFFF
7FFF
7FFE
ENDCHAR
STARTCHAR 00B4
ENCODING 180
SWIDTH 320 0
DWIDTH 16 0
BBX 11 9 2 26
BITMAP
03C0
07E0
0FE0
3FE0
7FE0
7FC0
FF00
7E00
7800
ENDCHAR
STARTCHAR 00B7
ENCODING 183
SWIDTH 240 0
DWIDTH 12 0
BBX 7 8 2 13
BITMAP
10
7C
FE
FE
FE
FE
FE
7C
ENDCHAR
STARTCHAR 00BF
ENCODING 191
SWIDTH 500 0
DWIDTH 25 0
BBX 21 35 2 -8
BITMAP
01F000
01F800
03F800
03F800
01F800
01F000
000000
000000
000000
00F000
01F800
01F800
01F800
01F800
01F800
07F800
0FF800
1FF800
3FF000
7FE000
7F8000
FE0000
FE0000
FC0000
FC0000
FC00F0
FC01F8
FE03F8
FF8FF8
7FFFF8
7FFFF0
3FFFE0
1FFFC0
0FFF80
01FC00
ENDCHAR
STARTCHAR 00C0
ENCODING 192
SWIDTH 740 0
DWIDTH 37 0
BBX 35 46 1 0
BITMAP
0007800000
000FC00000
000FF00000
000FF80000
0007FC0000
0003FE0000
0001FE0000
00007E0000
00001C0000
0000000000
0000000000
0000600000
0001F00000
0003F80000
0003F80000
0007FC0000
0007FC0000
000FFE0000
000FFE0000
001FFF0000
001FFF0000
003FBF8000
003FBF8000
007F1FC000
007F1FC000
00FE0FE000
00FE0FE000
01FC07F000
01FC07F000
03F807F800
03F803F800
07F003FC00
07F001FC00
0FFFFFFE00
0FFFFFFE00
1FFFFFFF00
1FFFFFFF00
3FFFFFFF80
3FFFFFFF80
7FFFFFFFC0
7F00001FC0
FF00000FE0
FE00000FE0
FE000007E0
FC000007E0
78000003C0
ENDCHAR
STARTCHAR 00C1
ENCODING 193
SWIDTH 740 0
DWIDTH 37 0
BBX 35 46 1 0
BITMAP
00001C0000
00003E0000
0000FF0000
0001FF0000
0003FE0000
0007FC0000
0007F80000
0007E00000
0003C00000
0000000000
0000000000
0000600000
0001F00000
0003F80000
0003F80000
0007FC0000
0007FC0000
000FFE0000
000FFE0000
001FFF0000
001FFF0000
003FBF8000
003FBF8000
007F1FC000
007F1FC000
00FE0FE000
00FE0FE000
01FC07F000
01FC07F000
03F807F800
03F803F800
07F003FC00
07F001FC00
0FFFFFFE00
0FFFFFFE00
1FFFFFFF00
1FFFFFFF00
3FFFFFFF80
3FFFFFFF80
7FFFFFFFC0
7F00001FC0
FF00000FE0
FE00000FE0
FE000007E0
FC000007E0
78000003C0
ENDCHAR
STARTCHAR 00C2
ENCODING 194
SWIDTH 740 0
DWIDTH 37 0
BBX 35 46 1 -2
BITMAP
0000400000
0001F00000
0003F80000
0007FC0000
001FFF0000
003FFF8000
003FBF8000
003F1F8000
001C070000
0000000000
0000000000
0000600000
0001F00000
0003F80000
0003F80000
0007FC0000
0007FC0000
000FFE0000
000FFE0000
001FFF0000
001FFF0000
003FBF8000
003FBF8000
007F1FC000
007F1FC000
00FE0FE000
00FE0FE000
01FC07F000
01FC07F000
03F807F800
03F803F800
07F003FC00
07F001FC00
0FFFFFFE00
0FFFFFFE00
1FFFFFFF00
1FFFFFFF00
3FFFFFFF80
3FFFFFFF80
7FFFFFFFC0
7F00001FC0
FF00000FE0
FE00000FE0
FE000007E0
FC000007E0
78000003C0
ENDCHAR
STARTCHAR 00C3
ENCODING 195
SWIDTH 740 0
DWIDTH 37 0
BBX 35 45 1 -2
BITMAP
0007800000
001FC38000
003FF7C000
003FFFC000
007FFFC000
007CFF8000
00387F0000
00003E0000
0000000000
0000000000
0000600000
0001F00000
0003F80000
0003F80000
0007FC0000
0007FC0000
000FFE0000
000FFE0000
001FFF0000
001FFF0000
003FBF8000
003FBF8000
007F1FC000
007F1FC000
00FE0FE000
00FE0FE000
01FC07F000
01FC07F000
03F807F800
03F803F800
07F003FC00
07F001FC00
0FFFFFFE00
0FFFFFFE00
1FFFFFFF00
1FFFFFFF00
3FFFFFFF80
3FFFFFFF80
7FFFFFFFC0
7F00001FC0
FF00000FE0
FE00000FE0
FE000007E0
FC000007E0
78000003C0
ENDCHAR
STARTCHAR 00C4
ENCODING 196
SWIDTH 740 0
DWIDTH 37 0
BBX 35 45 1 -1
BITMAP
0018018000
007E07E000
00FE07E000
00FE0FF000
00FE0FF000
00FE0FF000
007E07E000
003C03C000
0000000000
0000000000
0000600000
0001F00000
0003F80000
0003F80000
0007FC0000
0007FC0000
000FFE0000
000FFE0000
001FFF0000
001FFF0000
003FBF8000
003FBF8000
007F1FC000
007F1FC000
00FE0FE000
00FE0FE000
01FC07F000
01FC07F000
03F807F800
03F803F800
07F003FC00
07F001FC00
0FFFFFFE00
0FFFFFFE00
1FFFFFFF00
1FFFFFFF00
3FFFFFFF80
3FFFFFFF80
7FFFFFFFC0
7F00001FC0
FF00000FE0
FE00000FE0
FE000007E0
FC000007E0
78000003C0
ENDCHAR
STARTCHAR 00C5
ENCODING 197
SWIDTH 740 0
DWIDTH 37 0
BBX 35 43 1 1
BITMAP
0003F80000
0007FE0000
000FFE0000
001FFF0000
001F1F0000
001F0F0000
001F0F0000
001FFF0000
001FFF0000
000FFE0000
0007FC0000
0003F80000
0007FC0000
0007FC0000
000FFE0000
000FFE0000
001FFF0000
001FFF0000
003FBF8000
003FBF8000
007F1FC000
007F1FC000
00FE0FE000
00FE0FE000
01FC07F000
01FC07F000
03F807F800
03F803F800
07F003FC00
07F001FC00
0FFFFFFE00
0FFFFFFE00
1FFFFFFF00
1FFFFFFF00
3FFFFFFF80
3FFFFFFF80
7FFFFFFFC0
7F00001FC0
FF00000FE0
FE00000FE0
FE000007E0
FC000007E0
78000003C0
ENDCHAR
STARTCHAR 00C6
ENCODING 198
SWIDTH 1000 0
DWIDTH 50 0
BBX 48 34 1 -1
BITMAP
00001FFFFFFC
00003FFFFFFE
00007FFFFFFE
0000FFFFFFFE
0000FFFFFFFE
0001FFFFFFF8
0001FCFC0000
0003FCFC0000
0007F8FC0000
0007F0FC0000
000FF0FC0000
001FE0FC0000
001FC0FC0000
003FC0FFFFF0
003F80FFFFF8
007F80FFFFF8
00FF00FFFFF8
00FE00FFFFF8
01FE00FFFFF0
03FC00FC0000
03FFFFFC0000
07FFFFFC0000
07FFFFFC0000
0FFFFFFC0000
1FFFFFFC0000
1FFFFFFC0000
3FFFFFFC0000
7F8000FC0000
7F8000FFFFFE
FF0000FFFFFF
FF0000FFFFFF
FE0000FFFFFF
FE0000FFFFFF
7C00007FFFFE
ENDCHAR
STARTCHAR 00C7
ENCODING 199
SWIDTH 700 0
DWIDTH 35 0
BBX 31 45 2 -12
BITMAP
000FFF00
007FFFC0
00FFFFE0
03FFFFF8
07FFFFFC
0FFFFFFC
1FFC07FE
1FF001FE
3FE0007C
3FC00038
7F800000
7F000000
7F000000
FE000000
FE000000
FE000000
FE000000
FE000000
FE000000
FE000000
FE000000
FE000000
FF000000
7F000000
7F800000
7F800018
3FC0007C
3FF000FE
1FF803FE
0FFFBFFE
0FFFFFFC
07FFFFF8
01FFFFF0
00FFFFC0
003FFF00
0003F800
0003F000
0007E000
0007E000
000FE000
000FC000
000FC000
000FC000
0007C000
00038000
ENDCHAR
STARTCHAR 00C8
ENCODING 200
SWIDTH 620 0
DWIDTH 31 0
BBX 26 46 3 2
BITMAP
00F00000
01F80000
01FC0000
01FF0000
01FF8000
007FC000
003FC000
000FC000
00078000
00000000
00000000
0FFFFC00
7FFFFF00
7FFFFF80
FFFFFF80
FFFFFF80
FFFFFF00
FFFFFE00
FE000000
FE000000
FE000000
FE000000
FE000000
FE000000
FE000000
FFFFF000
FFFFFC00
FFFFFE00
FFFFFE00
FFFFFE00
FFFFFE00
FFFFFC00
FE000000
FE000000
FE000000
FE000000
FE000000
FE000000
FE000000
FFFFFE00
FFFFFF80
FFFFFFC0
FFFFFFC0
7FFFFFC0
7FFFFF80
3FFFFF00
ENDCHAR
STARTCHAR 00C9
ENCODING 201
SWIDTH 620 0
DWIDTH 31 0
BBX 26 46 3 2
BITMAP
0001C000
0007E000
000FE000
003FE000
007FE000
00FFC000
00FF0000
00FE0000
00780000
00000000
00000000
0FFFFC00
7FFFFF00
7FFFFF80
FFFFFF80
FFFFFF80
FFFFFF00
FFFFFE00
FE000000
FE000000
FE000000
FE000000
FE000000
FE000000
FE000000
FFFFF000
FFFFFC00
FFFFFE00
FFFFFE00
FFFFFE00
FFFFFE00
FFFFFC00
FE000000
FE000000
FE000000
FE000000
FE000000
FE000000
FE000000
FFFFFE00
FFFFFF80
FFFFFFC0
FFFFFFC0
FFFFFFC0
7FFFFF80
3FFFFF00
ENDCHAR
STARTCHAR 00CA
ENCODING 202
SWIDTH 620 0
DWIDTH 31 0
BBX 26 46 3 0
BITMAP
000C0000
003E0000
007F8000
00FFC000
03FFE000
03FFF000
07F3F000
03E1F000
03C0E000
00000000
00000000
0FFFFC00
7FFFFF00
7FFFFF80
FFFFFF80
FFFFFF80
FFFFFF00
FFFFFE00
FE000000
FE000000
FE000000
FE000000
FE000000
FE000000
FE000000
FFFFF000
FFFFFC00
FFFFFE00
FFFFFE00
FFFFFE00
FFFFFE00
FFFFFC00
FE000000
FE000000
FE000000
FE000000
FE000000
FE000000
FE000000
FFFFFE00
FFFFFF80
FFFFFFC0
FFFFFFC0
FFFFFFC0
7FFFFF80
3FFFFF00
ENDCHAR
STARTCHAR 00CB
ENCODING 203
SWIDTH 620 0
DWIDTH 31 0
BBX 26 45 3 1
BITMAP
03803800
07C07C00
0FE0FE00
0FE0FE00
0FE0FE00
0FE0FE00
07C07C00
03803800
00000000
00000000
0FFFFC00
7FFFFF00
7FFFFF80
FFFFFF80
FFFFFF80
FFFFFF00
FFFFFE00
FE000000
FE000000
FE000000
FE000000
FE000000
FE000000
FE000000
FFFFF000
FFFFFC00
FFFFFE00
FFFFFE00
FFFFFE00
FFFFFE00
FFFFFC00
FE000000
FE000000
FE000000
FE000000
FE000000
FE000000
FE000000
FFFFFE00
FFFFFF80
FFFFFFC0
FFFFFFC0
FFFFFFC0
7FFFFF80
3FFFFF00
ENDCHAR
STARTCHAR 00CC
ENCODING 204
SWIDTH 280 0
DWIDTH 14 0
BBX 11 46 2 1
BITMAP
7000
FC00
FE00
FF80
FFC0
7FE0
1FE0
0FC0
03C0
0000
0000
0E00
3F00
3F00
3F00
3F00
3F00
3F00
3F00
3F00
3F00
3F00
3F00
3F00
3F00
3F00
3F00
3F00
3F00
3F00
3F00
3F00
3F00
3F00
3F00
3F00
3F00
3F00
3F00
3F00
3F00
3F00
3F00
3F00
3F00
1E00
ENDCHAR
STARTCHAR 00CD
ENCODING 205
SWIDTH 280 0
DWIDTH 14 0
BBX 11 46 2 1
BITMAP
03C0
07E0
1FE0
3FE0
7FC0
FF80
FE00
FC00
7000
0000
0000
0E00
1F00
3F00
3F00
3F00
3F00
3F00
3F00
3F00
3F00
3F00
3F00
3F00
3F00
3F00
3F00
3F00
3F00
3F00
3F00
3F00
3F00
3F00
3F00
3F00
3F00
3F00
3F00
3F00
3F00
3F00
3F00
3F00
3F00
1E00
ENDCHAR
STARTCHAR 00CE
ENCODING 206
SWIDTH 280 0
DWIDTH 14 0
BBX 15 46 0 -1
BITMAP
0380
07C0
1FE0
3FF8
7FFC
FFFE
FCFE
F83C
7018
0000
0000
0380
07C0
0FC0
0FC0
0FC0
0FC0
0FC0
0FC0
0FC0
0FC0
0FC0
0FC0
0FC0
0FC0
0FC0
0FC0
0FC0
0FC0
0FC0
0FC0
0FC0
0FC0
0FC0
0FC0
0FC0
0FC0
0FC0
0FC0
0FC0
0FC0
0FC0
0FC0
0FC0
0FC0
0780
ENDCHAR
STARTCHAR 00CF
ENCODING 207
SWIDTH 280 0
DWIDTH 14 0
BBX 20 45 -3 0
BITMAP
3C03E0
7E07F0
7F07F0
FF07F0
FF07F0
7E07F0
7E03E0
000080
000000
000000
007000
00F800
01F800
01F800
01F800
01F800
01F800
01F800
01F800
01F800
01F800
01F800
01F800
01F800
01F800
01F800
01F800
01F800
01F800
01F800
01F800
01F800
01F800
01F800
01F800
01F800
01F800
01F800
01F800
01F800
01F800
01F800
01F800
01F800
00F000
ENDCHAR
STARTCHAR 00D0
ENCODING 208
SWIDTH 780 0
DWIDTH 39 0
BBX 36 35 1 0
BITMAP
03FFFF0000
07FFFFE000
07FFFFF800
07FFFFFC00
07FFFFFE00
07FFFFFF00
07F003FF80
07F0007FC0
07F0003FC0
07F0001FE0
07F0000FE0
07F00007F0
07F00007F0
07F00003F0
1FFF8003F0
7FFFC003F0
FFFFE003F0
FFFFE003F0
FFFFE003F0
FFFFE003F0
7FFFC003F0
07F00003F0
07F00007F0
07F00007E0
07F0000FE0
07F0001FE0
07F0003FC0
07F0007FC0
07F001FF80
07FFFFFF00
07FFFFFE00
07FFFFFC00
07FFFFF800
07FFFFE000
03FFFF0000
ENDCHAR
STARTCHAR 00D1
ENCODING 209
SWIDTH 740 0
DWIDTH 37 0
BBX 29 45 4 0
BITMAP
007C0000
01FE1C00
01FFBE00
03FFFE00
03FFFE00
03EFFC00
03C3F800
0001F000
00000000
00000000
200000E0
F80001F8
FC0001F8
FE0001F8
FF0001F8
FF8001F8
FFC001F8
FFC001F8
FFE001F8
FFF001F8
FFF801F8
FFFC01F8
FFFC01F8
FDFE01F8
FCFF01F8
FC7F81F8
FC7FC1F8
FC3FC1F8
FC1FE1F8
FC0FF1F8
FC07F9F8
FC07FDF8
FC03FDF8
FC01FFF8
FC00FFF8
FC007FF8
FC007FF8
FC003FF8
FC001FF8
FC000FF8
FC000FF8
FC0007F8
FC0003F8
FC0001F8
780000F0
ENDCHAR
STARTCHAR 00D2
ENCODING 210
SWIDTH 840 0
DWIDTH 42 0
BBX 37 49 2 0
BITMAP
0001800000
0003E00000
0007F00000
0007FC0000
0007FE0000
0003FF0000
0000FF0000
00007F0000
00001F0000
0000000000
0000000000
0000000000
0001FE0000
001FFFC000
007FFFF000
00FFFFFC00
03FFFFFE00
07FFFFFF00
0FFFFFFF80
0FFC01FFC0
1FF0007FC0
3FE0001FE0
3FC0000FE0
3F80000FF0
7F000007F0
7F000007F0
7E000003F8
7E000003F8
FE000003F8
FE000003F8
FE000003F8
FE000003F8
FE000003F8
FE000003F8
7E000003F8
7F000003F0
7F000007F0
7F800007F0
3F80000FF0
3FC0001FE0
1FF0003FE0
1FF800FFC0
0FFF03FF80
07FFFFFF00
03FFFFFE00
01FFFFFC00
007FFFF000
001FFFC000
0003FE0000
ENDCHAR
STARTCHAR 00D3
ENCODING 211
SWIDTH 840 0
DWIDTH 42 0
BBX 37 49 2 0
BITMAP
00000C0000
00001F0000
00007F0000
0000FF0000
0001FF0000
0003FE0000
0007FC0000
0007F00000
0003E00000
0000800000
0000000000
0000000000
0001FE0000
001FFFC000
007FFFF000
00FFFFFC00
03FFFFFE00
07FFFFFF00
0FFFFFFF80
0FFC01FFC0
1FF0007FC0
3FE0001FE0
3FC0000FE0
3F80000FF0
7F000007F0
7F000007F0
7E000003F8
7E000003F8
FE000003F8
FE000003F8
FE000003F8
FE000003F8
FE000003F8
FE000003F8
7E000003F8
7F000003F0
7F000007F0
7F800007F0
3F80000FF0
3FC0001FE0
1FF0003FE0
1FF800FFC0
0FFF03FF80
07FFFFFF00
03FFFFFE00
01FFFFFC00
007FFFF000
001FFFC000
0003FE0000
ENDCHAR
STARTCHAR 00D4
ENCODING 212
SWIDTH 840 0
DWIDTH 42 0
BBX 37 48 2 -1
BITMAP
0000700000
0000F80000
0003FE0000
0007FF0000
000FFF8000
001FFFC000
001FDFE000
001F07C000
000E038000
0000000000
0000000000
0001FE0000
001FFFC000
007FFFF000
00FFFFFC00
03FFFFFE00
07FFFFFF00
0FFFFFFF80
0FFC01FFC0
1FF0007FC0
3FE0001FE0
3FC0000FE0
3F80000FF0
7F000007F0
7F000007F0
7E000003F8
7E000003F8
FE000003F8
FE000003F8
FE000003F8
FE000003F8
FE000003F8
FE000003F8
7E000003F8
7F000003F0
7F000007F0
7F800007F0
3F80000FF0
3FC0001FE0
1FF0003FE0
1FF800FFC0
0FFF03FF80
07FFFFFF00
03FFFFFE00
01FFFFFC00
007FFFF000
001FFFC000
0003FE0000
ENDCHAR
STARTCHAR 00D5
ENCODING 213
SWIDTH 840 0
DWIDTH 42 0
BBX 37 47 2 -1
BITMAP
0003C00000
000FF0E000
001FF9F000
003FFFF000
003FFFE000
003E7FE000
003C3FC000
00000F0000
0000000000
0000000000
0001FE0000
001FFFC000
007FFFF000
00FFFFFC00
03FFFFFE00
07FFFFFF00
0FFFFFFF80
0FFC01FFC0
1FF0007FC0
3FE0001FE0
3FC0000FE0
3F80000FF0
7F000007F0
7F000007F0
7E000003F8
7E000003F8
FE000003F8
FE000003F8
FE000003F8
FE000003F8
FE000003F8
FE000003F8
7E000003F8
7F000003F0
7F000007F0
7F800007F0
3F80000FF0
3FC0001FE0
1FF0003FE0
1FF800FFC0
0FFF03FF80
07FFFFFF00
03FFFFFE00
01FFFFFC00
007FFFF000
001FFFC000
0003FE0000
ENDCHAR
STARTCHAR 00D6
ENCODING 214
SWIDTH 840 0
DWIDTH 42 0
BBX 37 47 2 0
BITMAP
001E01E000
003F03F000
007F07F000
007F07F800
007F07F800
007F07F000
003F03F000
001C01C000
0000000000
0000000000
0001FE0000
001FFFC000
007FFFF000
00FFFFFC00
03FFFFFE00
07FFFFFF00
0FFFFFFF80
0FFC01FFC0
1FF0007FC0
3FE0001FE0
3FC0000FE0
3F80000FF0
7F000007F0
7F000007F0
7E000003F8
7E000003F8
FE000003F8
FE000003F8
FE000003F8
FE000003F8
FE000003F8
FE000003F8
7E000003F8
7F000003F0
7F000007F0
7F800007F0
3F80000FF0
3FC0001FE0
1FF0003FE0
1FF800FFC0
0FFF03FF80
07FFFFFF00
03FFFFFE00
01FFFFFC00
007FFFF000
001FFFC000
0003FE0000
ENDCHAR
STARTCHAR 00D8
ENCODING 216
SWIDTH 840 0
DWIDTH 42 0
BBX 37 36 2 0
BITMAP
0001FF00F0
001FFFE1F8
007FFFF3F8
00FFFFFFF8
03FFFFFFF8
07FFFFFFF0
0FFFCFFFE0
0FF800FFC0
1FF000FFE0
3FC001FFE0
3F8003FFF0
7F8007FFF0
7F000FFFF8
7E001FF3F8
7E003FE3F8
FE007FC3F8
FE00FF81F8
FE01FF01F8
FE03FE01F8
FE07FC01F8
FE0FF801F8
7E1FF003F8
7F3FE003F8
7F7FC003F8
7FFF8007F0
3FFF000FF0
3FFE001FE0
1FFC003FE0
0FFC00FFC0
1FFFCFFF80
7FFFFFFF80
7FFFFFFE00
7FFFFFFC00
7F7FFFF800
7E1FFFE000
3C03FE0000
ENDCHAR
STARTCHAR 00D9
ENCODING 217
SWIDTH 740 0
DWIDTH 37 0
BBX 31 47 3 -4
BITMAP
001C0000
003F0000
003F8000
003FC000
003FF000
001FF000
0007F800
0003F000
0000F000
00000000
00000000
38000038
7C00007C
7E0000FC
FE0000FE
FE0000FE
FE0000FE
FE0000FE
FE0000FE
FE0000FE
FE0000FE
FE0000FE
FE0000FE
FE0000FE
FE0000FE
FE0000FE
FE0000FE
FE0000FE
FE0000FE
FE0000FE
FE0000FE
FE0000FE
FE0000FE
FE0000FE
7E0000FE
7E0000FC
7F0001FC
7F8003FC
3FC007FC
3FE00FF8
1FFFFFF8
1FFFFFF0
0FFFFFE0
07FFFFC0
01FFFF00
007FFC00
000FE000
ENDCHAR
STARTCHAR 00DA
ENCODING 218
SWIDTH 740 0
DWIDTH 37 0
BBX 31 47 3 -4
BITMAP
00007800
0000FC00
0001FC00
0007FC00
000FFC00
001FF000
001FE000
001F8000
000F0000
00000000
00000000
18000038
7C00007C
7E0000FC
FE0000FE
FE0000FE
FE0000FE
FE0000FE
FE0000FE
FE0000FE
FE0000FE
FE0000FE
FE0000FE
FE0000FE
FE0000FE
FE0000FE
FE0000FE
FE0000FE
FE0000FE
FE0000FE
FE0000FE
FE0000FE
FE0000FE
FE0000FE
7E0000FE
7F0000FC
7F0001FC
7F8001FC
3FC007FC
3FF00FF8
1FFFFFF0
1FFFFFF0
0FFFFFE0
07FFFFC0
01FFFF00
007FFC00
000FE000
ENDCHAR
STARTCHAR 00DB
ENCODING 219
SWIDTH 740 0
DWIDTH 37 0
BBX 31 47 3 -6
BITMAP
00038000
0007C000
001FF000
003FF800
007FFC00
00FFFE00
00FC7E00
00F83E00
00301800
00000000
00000000
18000038
7C00007C
7E0000FC
FE0000FE
FE0000FE
FE0000FE
FE0000FE
FE0000FE
FE0000FE
FE0000FE
FE0000FE
FE0000FE
FE0000FE
FE0000FE
FE0000FE
FE0000FE
FE0000FE
FE0000FE
FE0000FE
FE0000FE
FE0000FE
FE0000FE
FE0000FE
7E0000FE
7F0000FC
7F0001FC
7F8001FC
3FC007FC
3FF00FF8
1FFFFFF0
1FFFFFF0
0FFFFFE0
07FFFFC0
01FFFF00
007FFC00
000FE000
ENDCHAR
STARTCHAR 00DC
ENCODING 220
SWIDTH 740 0
DWIDTH 37 0
BBX 31 46 3 -5
BITMAP
01F01F00
03F83F80
03F83F80
03F83F80
03F83F80
03F83F80
01F01F00
00400400
00000000
00000000
18000038
7C00007C
7E0000FC
FE0000FE
FE0000FE
FE0000FE
FE0000FE
FE0000FE
FE0000FE
FE0000FE
FE0000FE
FE0000FE
FE0000FE
FE0000FE
FE0000FE
FE0000FE
FE0000FE
FE0000FE
FE0000FE
FE0000FE
FE0000FE
FE0000FE
FE0000FE
7E0000FE
7F0000FC
7F0001FC
7F8001FC
3FC007FC
3FF00FF8
1FFFFFF0
1FFFFFF0
0FFFFFE0
07FFFFC0
01FFFF00
007FFC00
000FE000
ENDCHAR
STARTCHAR 00DD
ENCODING 221
SWIDTH 640 0
DWIDTH 32 0
BBX 30 46 1 1
BITMAP
00007000
0000F800
0003FC00
0007FC00
000FF800
001FF000
001FE000
001F8000
001F0000
00000000
00000000
30000020
7C0000F8
FC0001FC
FE0003FC
FF0003FC
7F0007F8
7F800FF0
3FC00FF0
1FC01FE0
1FE03FC0
0FF03FC0
07F07F80
07F8FF00
03FCFE00
01FDFE00
01FFFC00
00FFF800
007FF800
007FF000
003FE000
001FE000
001FC000
001FC000
001FC000
001FC000
001FC000
001FC000
001FC000
001FC000
001FC000
001FC000
001FC000
001FC000
000FC000
00078000
ENDCHAR
STARTCHAR 00DE
ENCODING 222
SWIDTH 660 0
DWIDTH 33 0
BBX 27 35 4 0
BITMAP
78000000
FC000000
FC000000
FC000000
FC000000
FFFFC000
FFFFF800
FFFFFC00
FFFFFE00
FFFFFF00
FFFFFF80
FC01FFC0
FC003FC0
FC001FC0
FC000FE0
FC000FE0
FC000FE0
FC000FE0
FC000FE0
FC000FE0
FC000FE0
FC001FC0
FC003FC0
FC01FFC0
FFFFFF80
FFFFFF00
FFFFFE00
FFFFFC00
FFFFF800
FFFFC000
FC000000
FC000000
FC000000
FC000000
78000000
ENDCHAR
STARTCHAR 00E0
ENCODING 224
SWIDTH 740 0
DWIDTH 37 0
BBX 35 46 1 0
BITMAP
0007800000
000FC00000
000FF00000
000FF80000
0007FC0000
0003FE0000
0001FE0000
00007E0000
00001C0000
0000000000
0000000000
0000600000
0001F00000
0003F80000
0003F80000
0007FC0000
0007FC0000
000FFE0000
000FFE0000
001FFF0000
001FFF0000
003FBF8000
003FBF8000
007F1FC000
007F1FC000
00FE0FE000
00FE0FE000
01FC07F000
01FC07F000
03F807F800
03F803F800
07F003FC00
07F001FC00
0FFFFFFE00
0FFFFFFE00
1FFFFFFF00
1FFFFFFF00
3FFFFFFF80
3FFFFFFF80
7FFFFFFFC0
7F00001FC0
FF00000FE0
FE00000FE0
FE000007E0
FC000007E0
78000003C0
ENDCHAR
STARTCHAR 00E1
ENCODING 225
SWIDTH 740 0
DWIDTH 37 0
BBX 35 46 1 0
BITMAP
00001C0000
00003E0000
0000FF0000
0001FF0000
0003FE0000
0007FC0000
0007F80000
0007E00000
0003C00000
0000000000
0000000000
0000600000
0001F00000
0003F80000
0003F80000
0007FC0000
0007FC0000
000FFE0000
000FFE0000
001FFF0000
001FFF0000
003FBF8000
003FBF8000
007F1FC000
007F1FC000
00FE0FE000
00FE0FE000
01FC07F000
01FC07F000
03F807F800
03F803F800
07F003FC00
07F001FC00
0FFFFFFE00
0FFFFFFE00
1FFFFFFF00
1FFFFFFF00
3FFFFFFF80
3FFFFFFF80
7FFFFFFFC0
7F00001FC0
FF00000FE0
FE00000FE0
FE000007E0
FC000007E0
78000003C0
ENDCHAR
STARTCHAR 00E2
ENCODING 226
SWIDTH 740 0
DWIDTH 37 0
BBX 35 46 1 -2
BITMAP
0000400000
0001F00000
0003F80000
0007FC0000
001FFF0000
003FFF8000
003FBF8000
003F1F8000
001C070000
0000000000
0000000000
0000600000
0001F00000
0003F80000
0003F80000
0007FC0000
0007FC0000
000FFE0000
000FFE0000
001FFF0000
001FFF0000
003FBF8000
003FBF8000
007F1FC000
007F1FC000
00FE0FE000
00FE0FE000
01FC07F000
01FC07F000
03F807F800
03F803F800
07F003FC00
07F001FC00
0FFFFFFE00
0FFFFFFE00
1FFFFFFF00
1FFFFFFF00
3FFFFFFF80
3FFFFFFF80
7FFFFFFFC0
7F00001FC0
FF00000FE0
FE00000FE0
FE000007E0
FC000007E0
78000003C0
ENDCHAR
STARTCHAR 00E3
ENCODING 227
SWIDTH 740 0
DWIDTH 37 0
BBX 35 45 1 -2
BITMAP
0007800000
001FC38000
003FF7C000
003FFFC000
007FFFC000
007CFF8000
00387F0000
00003E0000
0000000000
0000000000
0000600000
0001F00000
0003F80000
0003F80000
0007FC0000
0007FC0000
000FFE0000
000FFE0000
001FFF0000
001FFF0000
003FBF8000
003FBF8000
007F1FC000
007F1FC000
00FE0FE000
00FE0FE000
01FC07F000
01FC07F000
03F807F800
03F803F800
07F003FC00
07F001FC00
0FFFFFFE00
0FFFFFFE00
1FFFFFFF00
1FFFFFFF00
3FFFFFFF80
3FFFFFFF80
7FFFFFFFC0
7F00001FC0
FF00000FE0
FE00000FE0
FE000007E0
FC000007E0
78000003C0
ENDCHAR
STARTCHAR 00E4
ENCODING 228
SWIDTH 740 0
DWIDTH 37 0
BBX 35 45 1 -1
BITMAP
0018018000
007E07E000
00FE07E000
00FE0FF000
00FE0FF000
00FE0FF000
007E07E000
003C03C000
0000000000
0000000000
0000600000
0001F00000
0003F80000
0003F80000
0007FC0000
0007FC0000
000FFE0000
000FFE0000
001FFF0000
001FFF0000
003FBF8000
003FBF8000
007F1FC000
007F1FC000
00FE0FE000
00FE0FE000
01FC07F000
01FC07F000
03F807F800
03F803F800
07F003FC00
07F001FC00
0FFFFFFE00
0FFFFFFE00
1FFFFFFF00
1FFFFFFF00
3FFFFFFF80
3FFFFFFF80
7FFFFFFFC0
7F00001FC0
FF00000FE0
FE00000FE0
FE000007E0
FC000007E0
78000003C0
ENDCHAR
STARTCHAR 00E5
ENCODING 229
SWIDTH 740 0
DWIDTH 37 0
BBX 35 43 1 1
BITMAP
0003F80000
0007FE0000
000FFE0000
001FFF0000
001F1F0000
001F0F0000
001F0F0000
001FFF0000
001FFF0000
000FFE0000
0007FC0000
0003F80000
0007FC0000
0007FC0000
000FFE0000
000FFE0000
001FFF0000
001FFF0000
003FBF8000
003FBF8000
007F1FC000
007F1FC000
00FE0FE000
00FE0FE000
01FC07F000
01FC07F000
03F807F800
03F803F800
07F003FC00
07F001FC00
0FFFFFFE00
0FFFFFFE00
1FFFFFFF00
1FFFFFFF00
3FFFFFFF80
3FFFFFFF80
7FFFFFFFC0
7F00001FC0
FF00000FE0
FE00000FE0
FE000007E0
FC000007E0
78000003C0
ENDCHAR
STARTCHAR 00E6
ENCODING 230
SWIDTH 1000 0
DWIDTH 50 0
BBX 48 34 1 -1
BITMAP
00001FFFFFFC
00003FFFFFFE
00007FFFFFFE
0000FFFFFFFE
0000FFFFFFFE
0001FFFFFFF8
0001FCFC0000
0003FCFC0000
0007F8FC0000
0007F0FC0000
000FF0FC0000
001FE0FC0000
001FC0FC0000
003FC0FFFFF0
003F80FFFFF8
007F80FFFFF8
00FF00FFFFF8
00FE00FFFFF8
01FE00FFFFF0
03FC00FC0000
03FFFFFC0000
07FFFFFC0000
07FFFFFC0000
0FFFFFFC0000
1FFFFFFC0000
1FFFFFFC0000
3FFFFFFC0000
7F8000FC0000
7F8000FFFFFE
FF0000FFFFFF
FF0000FFFFFF
FE0000FFFFFF
FE0000FFFFFF
7C00007FFFFE
ENDCHAR
STARTCHAR 00E7
ENCODING 231
SWIDTH 700 0
DWIDTH 35 0
BBX 31 45 2 -12
BITMAP
000FFF00
007FFFC0
00FFFFE0
03FFFFF8
07FFFFFC
0FFFFFFC
1FFC07FE
1FF001FE
3FE0007C
3FC00038
7F800000
7F000000
7F000000
FE000000
FE000000
FE000000
FE000000
FE000000
FE000000
FE000000
FE000000
FE000000
FF000000
7F000000
7F800000
7F800018
3FC0007C
3FF000FE
1FF803FE
0FFFBFFE
0FFFFFFC
07FFFFF8
01FFFFF0
00FFFFC0
003FFF00
0003F800
0003F000
0007E000
0007E000
000FE000
000FC000
000FC000
000FC000
0007C000
00038000
ENDCHAR
STARTCHAR 00E8
ENCODING 232
SWIDTH 620 0
DWIDTH 31 0
BBX 26 46 3 2
BITMAP
00F00000
01F80000
01FC0000
01FF0000
01FF8000
007FC000
003FC000
000FC000
00078000
00000000
00000000
0FFFFC00
7FFFFF00
7FFFFF80
FFFFFF80
FFFFFF80
FFFFFF00
FFFFFE00
FE000000
FE000000
FE000000
FE000000
FE000000
FE000000
FE000000
FFFFF000
FFFFFC00
FFFFFE00
FFFFFE00
FFFFFE00
FFFFFE00
FFFFFC00
FE000000
FE000000
FE000000
FE000000
FE000000
FE000000
FE000000
FFFFFE00
FFFFFF80
FFFFFFC0
FFFFFFC0
7FFFFFC0
7FFFFF80
3FFFFF00
ENDCHAR
STARTCHAR 00E9
ENCODING 233
SWIDTH 620 0
DWIDTH 31 0
BBX 26 46 3 2
BITMAP
0001C000
0007E000
000FE000
003FE000
007FE000
00FFC000
00FF0000
00FE0000
00780000
00000000
00000000
0FFFFC00
7FFFFF00
7FFFFF80
FFFFFF80
FFFFFF80
FFFFFF00
FFFFFE00
FE000000
FE000000
FE000000
FE000000
FE000000
FE000000
FE000000
FFFFF000
FFFFFC00
FFFFFE00
FFFFFE00
FFFFFE00
FFFFFE00
FFFFFC00
FE000000
FE000000
FE000000
FE000000
FE000000
FE000000
FE000000
FFFFFE00
FFFFFF80
FFFFFFC0
FFFFFFC0
FFFFFFC0
7FFFFF80
3FFFFF00
ENDCHAR
STARTCHAR 00EA
ENCODING 234
SWIDTH 620 0
DWIDTH 31 0
BBX 26 46 3 0
BITMAP
000C0000
003E0000
007F8000
00FFC000
03FFE000
03FFF000
07F3F000
03E1F000
03C0E000
00000000
00000000
0FFFFC00
7FFFFF00
7FFFFF80
FFFFFF80
FFFFFF80
FFFFFF00
FFFFFE00
FE000000
FE000000
FE000000
FE000000
FE000000
FE000000
FE000000
FFFFF000
FFFFFC00
FFFFFE00
FFFFFE00
FFFFFE00
FFFFFE00
FFFFFC00
FE000000
FE000000
FE000000
FE000000
FE000000
FE000000
FE000000
FFFFFE00
FFFFFF80
FFFFFFC0
FFFFFFC0
FFFFFFC0
7FFFFF80
3FFFFF00
ENDCHAR
STARTCHAR 00EB
ENCODING 235
SWIDTH 620 0
DWIDTH 31 0
BBX 26 45 3 1
BITMAP
03803800
07C07C00
0FE0FE00
0FE0FE00
0FE0FE00
0FE0FE00
07C07C00
03803800
00000000
00000000
0FFFFC00
7FFFFF00
7FFFFF80
FFFFFF80
FFFFFF80
FFFFFF00
FFFFFE00
FE000000
FE000000
FE000000
FE000000
FE000000
FE000000
FE000000
FFFFF000
FFFFFC00
FFFFFE00
FFFFFE00
FFFFFE00
FFFFFE00
FFFFFC00
FE000000
FE000000
FE000000
FE000000
FE000000
FE000000
FE000000
FFFFFE00
FFFFFF80
FFFFFFC0
FFFFFFC0
FFFFFFC0
7FFFFF80
3FFFFF00
ENDCHAR
STARTCHAR 00EC
ENCODING 236
SWIDTH 280 0
DWIDTH 14 0
BBX 11 46 2 1
BITMAP
7000
FC00
FE00
FF80
FFC0
7FE0
1FE0
0FC0
03C0
0000
0000
0E00
3F00
3F00
3F00
3F00
3F00
3F00
3F00
3F00
3F00
3F00
3F00
3F00
3F00
3F00
3F00
3F00
3F00
3F00
3F00
3F00
3F00
3F00
3F00
3F00
3F00
3F00
3F00
3F00
3F00
3F00
3F00
3F00
3F00
1E00
ENDCHAR
STARTCHAR 00ED
ENCODING 237
SWIDTH 280 0
DWIDTH 14 0
BBX 11 46 2 1
BITMAP
03C0
07E0
1FE0
3FE0
7FC0
FF80
FE00
FC00
7000
0000
0000
0E00
1F00
3F00
3F00
3F00
3F00
3F00
3F00
3F00
3F00
3F00
3F00
3F00
3F00
3F00
3F00
3F00
3F00
3F00
3F00
3F00
3F00
3F00
3F00
3F00
3F00
3F00
3F00
3F00
3F00
3F00
3F00
3F00
3F00
1E00
ENDCHAR
STARTCHAR 00EE
ENCODING 238
SWIDTH 280 0
DWIDTH 14 0
BBX 15 46 0 -1
BITMAP
0380
07C0
1FE0
3FF8
7FFC
FFFE
FCFE
F83C
7018
0000
0000
0380
07C0
0FC0
0FC0
0FC0
0FC0
0FC0
0FC0
0FC0
0FC0
0FC0
0FC0
0FC0
0FC0
0FC0
0FC0
0FC0
0FC0
0FC0
0FC0
0FC0
0FC0
0FC0
0FC0
0FC0
0FC0
0FC0
0FC0
0FC0
0FC0
0FC0
0FC0
0FC0
0FC0
0780
ENDCHAR
STARTCHAR 00EF
ENCODING 239
SWIDTH 280 0
DWIDTH 14 0
BBX 20 45 -3 0
BITMAP
3C03E0
7E07F0
7F07F0
FF07F0
FF07F0
7E07F0
7E03E0
000080
000000
000000
007000
00F800
01F800
01F800
01F800
01F800
01F800
01F800
01F800
01F800
01F800
01F800
01F800
01F800
01F800
01F800
01F800
01F800
01F800
01F800
01F800
01F800
01F800
01F800
01F800
01F800
01F800
01F800
01F800
01F800
01F800
01F800
01F800
01F800
00F000
ENDCHAR
STARTCHAR 00F0
ENCODING 240
SWIDTH 780 0
DWIDTH 39 0
BBX 36 35 1 0
BITMAP
03FFFF0000
07FFFFE000
07FFFFF800
07FFFFFC00
07FFFFFE00
07FFFFFF00
07F003FF80
07F0007FC0
07F0003FC0
07F0001FE0
07F0000FE0
07F00007F0
07F00007F0
07F00003F0
1FFF8003F0
7FFFC003F0
FFFFE003F0
FFFFE003F0
FFFFE003F0
FFFFE003F0
7FFFC003F0
07F00003F0
07F00007F0
07F00007E0
07F0000FE0
07F0001FE0
07F0003FC0
07F0007FC0
07F001FF80
07FFFFFF00
07FFFFFE00
07FFFFFC00
07FFFFF800
07FFFFE000
03FFFF0000
ENDCHAR
STARTCHAR 00F1
ENCODING 241
SWIDTH 740 0
DWIDTH 37 0
BBX 29 45 4 0
BITMAP
007C0000
01FE1C00
01FFBE00
03FFFE00
03FFFE00
03EFFC00
03C3F800
0001F000
00000000
00000000
200000E0
F80001F8
FC0001F8
FE0001F8
FF0001F8
FF8001F8
FFC001F8
FFC001F8
FFE001F8
FFF001F8
FFF801F8
FFFC01F8
FFFC01F8
FDFE01F8
FCFF01F8
FC7F81F8
FC7FC1F8
FC3FC1F8
FC1FE1F8
FC0FF1F8
FC07F9F8
FC07FDF8
FC03FDF8
FC01FFF8
FC00FFF8
FC007FF8
FC007FF8
FC003FF8
FC001FF8
FC000FF8
FC000FF8
FC0007F8
FC0003F8
FC0001F8
780000F0
ENDCHAR
STARTCHAR 00F2
ENCODING 242
SWIDTH 840 0
DWIDTH 42 0
BBX 37 49 2 0
BITMAP
0001800000
0003E00000
0007F00000
0007FC0000
0007FE0000
0003FF0000
0000FF0000
00007F0000
00001F0000
0000000000
0000000000
0000000000
0001FE0000
001FFFC000
007FFFF000
00FFFFFC00
03FFFFFE00
07FFFFFF00
0FFFFFFF80
0FFC01FFC0
1FF0007FC0
3FE0001FE0
3FC0000FE0
3F80000FF0
7F000007F0
7F000007F0
7E000003F8
7E000003F8
FE000003F8
FE000003F8
FE000003F8
FE000003F8
FE000003F8
FE000003F8
7E000003F8
7F000003F0
7F000007F0
7F800007F0
3F80000FF0
3FC0001FE0
1FF0003FE0
1FF800FFC0
0FFF03FF80
07FFFFFF00
03FFFFFE00
01FFFFFC00
007FFFF000
001FFFC000
0003FE0000
ENDCHAR
STARTCHAR 00F3
ENCODING 243
SWIDTH 840 0
DWIDTH 42 0
BBX 37 49 2 0
BITMAP
00000C0000
00001F0000
00007F0000
0000FF0000
0001FF0000
0003FE0000
0007FC0000
0007F00000
0003E00000
0000800000
0000000000
0000000000
0001FE0000
001FFFC000
007FFFF000
00FFFFFC00
03FFFFFE00
07FFFFFF00
0FFFFFFF80
0FFC01FFC0
1FF0007FC0
3FE0001FE0
3FC0000FE0
3F80000FF0
7F000007F0
7F000007F0
7E000003F8
7E000003F8
FE000003F8
FE000003F8
FE000003F8
FE000003F8
FE000003F8
FE000003F8
7E000003F8
7F000003F0
7F000007F0
7F800007F0
3F80000FF0
3FC0001FE0
1FF0003FE0
1FF800FFC0
0FFF03FF80
07FFFFFF00
03FFFFFE00
01FFFFFC00
007FFFF000
001FFFC000
0003FE0000
ENDCHAR
STARTCHAR 00F4
ENCODING 244
SWIDTH 840 0
DWIDTH 42 0
BBX 37 48 2 -1
BITMAP
0000700000
0000F80000
0003FE0000
0007FF0000
000FFF8000
001FFFC000
001FDFE000
001F07C000
000E038000
0000000000
0000000000
0001FE0000
001FFFC000
007FFFF000
00FFFFFC00
03FFFFFE00
07FFFFFF00
0FFFFFFF80
0FFC01FFC0
1FF0007FC0
3FE0001FE0
3FC0000FE0
3F80000FF0
7F000007F0
7F000007F0
7E000003F8
7E000003F8
FE000003F8
FE000003F8
FE000003F8
FE000003F8
FE000003F8
FE000003F8
7E000003F8
7F000003F0
7F000007F0
7F800007F0
3F80000FF0
3FC0001FE0
1FF0003FE0
1FF800FFC0
0FFF03FF80
07FFFFFF00
03FFFFFE00
01FFFFFC00
007FFFF000
001FFFC000
0003FE0000
ENDCHAR
STARTCHAR 00F5
ENCODING 245
SWIDTH 840 0
DWIDTH 42 0
BBX 37 47 2 -1
BITMAP
0003C00000
000FF0E000
001FF9F000
003FFFF000
003FFFE000
003E7FE000
003C3FC000
00000F0000
0000000000
0000000000
0001FE0000
001FFFC000
007FFFF000
00FFFFFC00
03FFFFFE00
07FFFFFF00
0FFFFFFF80
0FFC01FFC0
1FF0007FC0
3FE0001FE0
3FC0000FE0
3F80000FF0
7F000007F0
7F000007F0
7E000003F8
7E000003F8
FE000003F8
FE000003F8
FE000003F8
FE000003F8
FE000003F8
FE000003F8
7E000003F8
7F000003F0
7F000007F0
7F800007F0
3F80000FF0
3FC0001FE0
1FF0003FE0
1FF800FFC0
0FFF03FF80
07FFFFFF00
03FFFFFE00
01FFFFFC00
007FFFF000
001FFFC000
0003FE0000
ENDCHAR
STARTCHAR 00F6
ENCODING 246
SWIDTH 840 0
DWIDTH 42 0
BBX 37 47 2 0
BITMAP
001E01E000
003F03F000
007F07F000
007F07F800
007F07F800
007F07F000
003F03F000
001C01C000
0000000000
0000000000
0001FE0000
001FFFC000
007FFFF000
00FFFFFC00
03FFFFFE00
07FFFFFF00
0FFFFFFF80
0FFC01FFC0
1FF0007FC0
3FE0001FE0
3FC0000FE0
3F80000FF0
7F000007F0
7F000007F0
7E000003F8
7E000003F8
FE000003F8
FE000003F8
FE000003F8
FE000003F8
FE000003F8
FE000003F8
7E000003F8
7F000003F0
7F000007F0
7F800007F0
3F80000FF0
3FC0001FE0
1FF0003FE0
1FF800FFC0
0FFF03FF80
07FFFFFF00
03FFFFFE00
01FFFFFC00
007FFFF000
001FFFC000
0003FE0000
ENDCHAR
STARTCHAR 00F8
ENCODING 248
SWIDTH 840 0
DWIDTH 42 0
BBX 37 36 2 0
BITMAP
0001FF00F0
001FFFE1F8
007FFFF3F8
00FFFFFFF8
03FFFFFFF8
07FFFFFFF0
0FFFCFFFE0
0FF800FFC0
1FF000FFE0
3FC001FFE0
3F8003FFF0
7F8007FFF0
7F000FFFF8
7E001FF3F8
7E003FE3F8
FE007FC3F8
FE00FF81F8
FE01FF01F8
FE03FE01F8
FE07FC01F8
FE0FF801F8
7E1FF003F8
7F3FE003F8
7F7FC003F8
7FFF8007F0
3FFF000FF0
3FFE001FE0
1FFC003FE0
0FFC00FFC0
1FFFCFFF80
7FFFFFFF80
7FFFFFFE00
7FFFFFFC00
7F7FFFF800
7E1FFFE000
3C03FE0000
ENDCHAR
STARTCHAR 00F9
ENCODING 249
SWIDTH 740 0
DWIDTH 37 0
BBX 31 47 3 -4
BITMAP
001C0000
003F0000
003F8000
003FC000
003FF000
001FF000
0007F800
0003F000
0000F000
00000000
00000000
38000038
7C00007C
7E0000FC
FE0000FE
FE0000FE
FE0000FE
FE0000FE
FE0000FE
FE0000FE
FE0000FE
FE0000FE
FE0000FE
FE0000FE
FE0000FE
FE0000FE
FE0000FE
FE0000FE
FE0000FE
FE0000FE
FE0000FE
FE0000FE
FE0000FE
FE0000FE
7E0000FE
7E0000FC
7F0001FC
7F8003FC
3FC007FC
3FE00FF8
1FFFFFF8
1FFFFFF0
0FFFFFE0
07FFFFC0
01FFFF00
007FFC00
000FE000
ENDCHAR
STARTCHAR 00FA
ENCODING 250
SWIDTH 740 0
DWIDTH 37 0
BBX 31 47 3 -4
BITMAP
00007800
0000FC00
0001FC00
0007FC00
000FFC00
001FF000
001FE000
001F8000
000F0000
00000000
00000000
18000038
7C00007C
7E0000FC
FE0000FE
FE0000FE
FE0000FE
FE0000FE
FE0000FE
FE0000FE
FE0000FE
FE0000FE
FE0000FE
FE0000FE
FE0000FE
FE0000FE
FE0000FE
FE0000FE
FE0000FE
FE0000FE
FE0000FE
FE0000FE
FE0000FE
FE0000FE
7E0000FE
7F0000FC
7F0001FC
7F8001FC
3FC007FC
3FF00FF8
1FFFFFF0
1FFFFFF0
0FFFFFE0
07FFFFC0
01FFFF00
007FFC00
000FE000
ENDCHAR
STARTCHAR 00FB
ENCODING 251
SWIDTH 740 0
DWIDTH 37 0
BBX 31 47 3 -6
BITMAP
00038000
0007C000
001FF000
003FF800
007FFC00
00FFFE00
00FC7E00
00F83E00
00301800
00000000
00000000
18000038
7C00007C
7E0000FC
FE0000FE
FE0000FE
FE0000FE
FE0000FE
FE0000FE
FE0000FE
FE0000FE
FE0000FE
FE0000FE
FE0000FE
FE0000FE
FE0000FE
FE0000FE
FE0000FE
FE0000FE
FE0000FE
FE0000FE
FE0000FE
FE0000FE
FE0000FE
7E0000FE
7F0000FC
7F0001FC
7F8001FC
3FC007FC
3FF00FF8
1FFFFFF0
1FFFFFF0
0FFFFFE0
07FFFFC0
01FFFF00
007FFC00
000FE000
ENDCHAR
STARTCHAR 00FC
ENCODING 252
SWIDTH 740 0
DWIDTH 37 0
BBX 31 46 3 -5
BITMAP
01F01F00
03F83F80
03F83F80
03F83F80
03F83F80
03F83F80
01F01F00
00400400
00000000
00000000
18000038
7C00007C
7E0000FC
FE0000FE
FE0000FE
FE0000FE
FE0000FE
FE0000FE
FE0000FE
FE0000FE
FE0000FE
FE0000FE
FE0000FE
FE0000FE
FE0000FE
FE0000FE
FE0000FE
FE0000FE
FE0000FE
FE0000FE
FE0000FE
FE0000FE
FE0000FE
7E0000FE
7F0000FC
7F0001FC
7F8001FC
3FC007FC
3FF00FF8
1FFFFFF0
1FFFFFF0
0FFFFFE0
07FFFFC0
01FFFF00
007FFC00
000FE000
ENDCHAR
STARTCHAR 00FD
ENCODING 253
SWIDTH 640 0
DWIDTH 32 0
BBX 30 46 1 1
BITMAP
00007000
0000F800
0003FC00
0007FC00
000FF800
001FF000
001FE000
001F8000
001F0000
00000000
00000000
30000020
7C0000F8
FC0001FC
FE0003FC
FF0003FC
7F0007F8
7F800FF0
3FC00FF0
1FC01FE0
1FE03FC0
0FF03FC0
07F07F80
07F8FF00
03FCFE00
01FDFE00
01FFFC00
00FFF800
007FF800
007FF000
003FE000
001FE000
001FC000
001FC000
001FC000
001FC000
001FC000
001FC000
001FC000
001FC000
001FC000
001FC000
001FC000
001FC000
000FC000
00078000
ENDCHAR
STARTCHAR 00FE
ENCODING 254
SWIDTH 660 0
DWIDTH 33 0
BBX 27 35 4 0
BITMAP
78000000
FC000000
FC000000
FC000000
FC000000
FFFFC000
FFFFF800
FFFFFC00
FFFFFE00
FFFFFF00
FFFFFF80
FC01FFC0
FC003FC0
FC001FC0
FC000FE0
FC000FE0
FC000FE0
FC000FE0
FC000FE0
FC000FE0
FC000FE0
FC001FC0
FC003FC0
FC01FFC0
FFFFFF80
FFFFFF00
FFFFFE00
FFFFFC00
FFFFF800
FFFFC000
FC000000
FC000000
FC000000
FC000000
78000000
ENDCHAR
STARTCHAR 00FF
ENCODING 255
SWIDTH 640 0
DWIDTH 32 0
BBX 31 44 1 1
BITMAP
03F01F00
03F03F80
07F83F80
07F83F80
07F83F80
03F03F00
01E01F00
00000000
00000000
38000038
FC00007C
FE0000FE
FE0001FE
FF0001FC
7F8003FC
7F8007F8
3FC00FF0
1FE00FF0
1FE01FE0
0FF03FC0
07F83F80
07F87F80
03FCFF00
01FEFE00
00FFFE00
00FFFC00
007FF800
003FF000
003FF000
001FE000
000FC000
000FC000
000FC000
000FC000
000FC000
000FC000
000FC000
000FC000
000FC000
000FC000
000FC000
000FC000
000FC000
00078000
ENDCHAR
STARTCHAR 0104
ENCODING 260
SWIDTH 740 0
DWIDTH 37 0
BBX 35 43 1 -9
BITMAP
0000C00000
0001F00000
0003F00000
0007F80000
0007F80000
000FFC0000
000FFC0000
001FFE0000
001FFE0000
003FFF0000
003FFF0000
007FBF8000
007F3F8000
00FF1FC000
00FE1FC000
01FE0FE000
01FC0FE000
01FC07F000
03F807F000
03F807F800
07F003F800
07F003FC00
0FFFFFFC00
0FFFFFFE00
1FFFFFFE00
1FFFFFFF00
3FFFFFFF00
3FFFFFFF80
7FFFFFFF80
7F00001FC0
FE00001FC0
FE00000FE0
FC00000FE0
FC00000FE0
7800001FC0
0000001F80
0000003F00
0000003F00
0000003F00
0000003F00
0000003E00
0000003E00
0000000800
ENDCHAR
STARTCHAR 0105
ENCODING 261
SWIDTH 740 0
DWIDTH 37 0
BBX 35 43 1 -9
BITMAP
0000C00000
0001F00000
0003F00000
0007F80000
0007F80000
000FFC0000
000FFC0000
001FFE0000
001FFE0000
003FFF0000
003FFF0000
007FBF8000
007F3F8000
00FF1FC000
00FE1FC000
01FE0FE000
01FC0FE000
01FC07F000
03F807F000
03F807F800
07F003F800
07F003FC00
0FFFFFFC00
0FFFFFFE00
1FFFFFFE00
1FFFFFFF00
3FFFFFFF00
3FFFFFFF80
7FFFFFFF80
7F00001FC0
FE00001FC0
FE00000FE0
FC00000FE0
FC00000FE0
7800001FC0
0000001F80
0000003F00
0000003F00
0000003F00
0000003F00
0000003E00
0000003E00
0000000800
ENDCHAR
STARTCHAR 0106
ENCODING 262
SWIDTH 700 0
DWIDTH 35 0
BBX 31 48 2 1
BITMAP
00001800
00007E00
0000FE00
0001FE00
0007FE00
0007FC00
000FF000
000FE000
00078000
00000000
00000000
00000000
0007FC00
003FFF80
00FFFFE0
01FFFFF0
03FFFFF8
07FFFFFC
0FFF9FFC
1FF001FC
1FE000FC
3FC00078
3F800000
7F000000
7F000000
7E000000
7E000000
FE000000
FC000000
FC000000
FC000000
FE000000
FE000000
FE000000
7E000000
7F000000
7F000000
7F800000
3F800038
3FC0007C
1FF001FE
0FFC07FE
0FFFFFFE
07FFFFFC
03FFFFF8
00FFFFF0
003FFFC0
0007FE00
ENDCHAR
STARTCHAR 0107
ENCODING 263
SWIDTH 700 0
DWIDTH 35 0
BBX 31 48 2 1
BITMAP
00001800
00007E00
0000FE00
0001FE00
0007FE00
0007FC00
000FF000
000FE000
00078000
00000000
00000000
00000000
0007FC00
003FFF80
00FFFFE0
01FFFFF0
03FFFFF8
07FFFFFC
0FFF9FFC
1FF001FC
1FE000FC
3FC00078
3F800000
7F000000
7F000000
7E000000
7E000000
FE000000
FC000000
FC000000
FC000000
FE000000
FE000000
FE000000
7E000000
7F000000
7F000000
7F800000
3F800038
3FC0007C
1FF001FE
0FFC07FE
0FFFFFFE
07FFFFFC
03FFFFF8
00FFFFF0
003FFFC0
0007FE00
ENDCHAR
STARTCHAR 0118
ENCODING 280
SWIDTH 620 0
DWIDTH 31 0
BBX 25 45 4 -10
BITMAP
3FFFFC00
FFFFFE00
FFFFFF00
FFFFFF00
FFFFFF00
FFFFFE00
FFFFFC00
FC000000
FC000000
FC000000
FC000000
FC000000
FC000000
FC000000
FFFFE000
FFFFF800
FFFFFC00
FFFFFC00
FFFFFC00
FFFFFC00
FFFFF800
FC000000
FC000000
FC000000
FC000000
FC000000
FC000000
FC000000
FC000000
FFFFFF00
FFFFFF80
FFFFFF80
FFFFFF80
FFFFFF80
7FFFFF00
0001FC00
0001F800
0003F800
0003F000
0007F000
0007F000
0007F000
0007E000
0003E000
0001C000
ENDCHAR
STARTCHAR 0119
ENCODING 281
SWIDTH 620 0
DWIDTH 31 0
BBX 25 45 4 -10
BITMAP
3FFFFC00
FFFFFE00
FFFFFF00
FFFFFF00
FFFFFF00
FFFFFE00
FFFFFC00
FC000000
FC000000
FC000000
FC000000
FC000000
FC000000
FC000000
FFFFE000
FFFFF800
FFFFFC00
FFFFFC00
FFFFFC00
FFFFFC00
FFFFF800
FC000000
FC000000
FC000000
FC000000
FC000000
FC000000
FC000000
FC000000
FFFFFF00
FFFFFF80
FFFFFF80
FFFFFF80
FFFFFF80
7FFFFF00
0001FC00
0001F800
0003F800
0003F000
0007F000
0007F000
0007F000
0007E000
0003E000
0001C000
ENDCHAR
STARTCHAR 0141
ENCODING 321
SWIDTH 600 0
DWIDTH 30 0
BBX 29 35 0 1
BITMAP
01C00000
03E00000
07E00000
07E00000
07E00000
07E00000
07E00000
07E00000
07E00000
07E00000
07E00000
07E1C000
07E7E000
07FFE000
07FFE000
07FFE000
07FFE000
0FFF8000
3FFE0000
7FF80000
FFF00000
FFE00000
FFE00000
7FE00000
17E00000
07E00000
07E00000
07E00000
07E00000
07FFFFF0
07FFFFF0
07FFFFF8
07FFFFF8
07FFFFF0
03FFFFE0
ENDCHAR
STARTCHAR 0142
ENCODING 322
SWIDTH 600 0
DWIDTH 30 0
BBX 29 35 0 1
BITMAP
01C00000
03E00000
07E00000
07E00000
07E00000
07E00000
07E00000
07E00000
07E00000
07E00000
07E00000
07E1C000
07E7E000
07FFE000
07FFE000
07FFE000
07FFE000
0FFF8000
3FFE0000
7FF80000
FFF00000
FFE00000
FFE00000
7FE00000
17E00000
07E00000
07E00000
07E00000
07E00000
07FFFFF0
07FFFFF0
07FFFFF8
07FFFFF8
07FFFFF0
03FFFFE0
ENDCHAR
STARTCHAR 0143
ENCODING 323
SWIDTH 740 0
DWIDTH 37 0
BBX 29 45 4 2
BITMAP
0000F000
0003F800
0007F800
000FF800
003FF000
003FE000
003F8000
003F0000
001C0000
00000000
200000F0
F80001F8
FC0001F8
FE0001F8
FF0001F8
FF8001F8
FFC001F8
FFC001F8
FFE001F8
FFF001F8
FFF801F8
FFFC01F8
FFFC01F8
FDFE01F8
FCFF01F8
FC7F81F8
FC7FC1F8
FC3FC1F8
FC1FE1F8
FC0FF1F8
FC07F9F8
FC07FDF8
FC03FDF8
FC01FFF8
FC00FFF8
FC00FFF8
FC007FF8
FC003FF8
FC001FF8
FC000FF8
FC000FF8
FC0007F8
FC0003F8
FC0001F8
780000F0
ENDCHAR
STARTCHAR 0144
ENCODING 324
SWIDTH 740 0
DWIDTH 37 0
BBX 29 45 4 2
BITMAP
0000F000
0003F800
0007F800
000FF800
003FF000
003FE000
003F8000
003F0000
001C0000
00000000
200000F0
F80001F8
FC0001F8
FE0001F8
FF0001F8
FF8001F8
FFC001F8
FFC001F8
FFE001F8
FFF001F8
FFF801F8
FFFC01F8
FFFC01F8
FDFE01F8
FCFF01F8
FC7F81F8
FC7FC1F8
FC3FC1F8
FC1FE1F8
FC0FF1F8
FC07F9F8
FC07FDF8
FC03FDF8
FC01FFF8
FC00FFF8
FC00FFF8
FC007FF8
FC003FF8
FC001FF8
FC000FF8
FC000FF8
FC0007F8
FC0003F8
FC0001F8
780000F0
ENDCHAR
STARTCHAR 0152
ENCODING 338
SWIDTH 960 0
DWIDTH 48 0
BBX 43 35 2 0
BITMAP
0007FFFFFFC0
003FFFFFFFE0
00FFFFFFFFE0
01FFFFFFFFE0
03FFFFFFFFE0
07FFFFFFFFC0
0FFE0FC00000
1FF00FC00000
3FE00FC00000
3FC00FC00000
7F800FC00000
7F000FC00000
7F000FC00000
FE000FC00000
FE000FFFFC00
FE000FFFFF00
FE000FFFFF80
FE000FFFFFC0
FE000FFFFFC0
FE000FFFFF80
FE000FFFFF00
FE000FC00000
7F000FC00000
7F000FC00000
7F800FC00000
3FC00FC00000
3FE00FC00000
1FF80FC00000
0FFFFFC00000
0FFFFFFFFFC0
07FFFFFFFFE0
01FFFFFFFFE0
00FFFFFFFFE0
003FFFFFFFE0
0007FFFFFFC0
ENDCHAR
STARTCHAR 0153
ENCODING 339
SWIDTH 960 0
DWIDTH 48 0
BBX 43 35 2 0
BITMAP
0007FFFFFFC0
003FFFFFFFE0
00FFFFFFFFE0
01FFFFFFFFE0
03FFFFFFFFE0
07FFFFFFFFC0
0FFE0FC00000
1FF00FC00000
3FE00FC00000
3FC00FC00000
7F800FC00000
7F000FC00000
7F000FC00000
FE000FC00000
FE000FFFFC00
FE000FFFFF00
FE000FFFFF80
FE000FFFFFC0
FE000FFFFFC0
FE000FFFFF80
FE000FFFFF00
FE000FC00000
7F000FC00000
7F000FC00000
7F800FC00000
3FC00FC00000
3FE00FC00000
1FF80FC00000
0FFFFFC00000
0FFFFFFFFFC0
07FFFFFFFFE0
01FFFFFFFFE0
00FFFFFFFFE0
003FFFFFFFE0
0007FFFFFFC0
ENDCHAR
STARTCHAR 015A
ENCODING 346
SWIDTH 640 0
DWIDTH 32 0
BBX 27 48 2 -1
BITMAP
0000E000
0003F000
0007F000
000FF000
003FF000
003FC000
007F8000
003E0000
001C0000
00000000
00000000
007FE000
03FFFC00
07FFFE00
0FFFFF00
1FFFFF80
3FFFFF80
3F803F80
7F000F00
7F000000
7E000000
7E000000
7F000000
7F000000
7FC00000
3FF00000
3FFF0000
1FFFE000
0FFFFC00
03FFFE00
00FFFF80
000FFFC0
0001FFC0
00003FE0
00001FE0
00000FE0
000007E0
000007E0
100007E0
7C000FE0
7F001FE0
FFE07FC0
FFFFFFC0
7FFFFF80
3FFFFF00
1FFFFE00
07FFF800
00FFC000
ENDCHAR
STARTCHAR 015B
ENCODING 347
SWIDTH 640 0
DWIDTH 32 0
BBX 27 48 2 -1
BITMAP
0000E000
0003F000
0007F000
000FF000
003FF000
003FC000
007F8000
003E0000
001C0000
00000000
00000000
007FE000
03FFFC00
07FFFE00
0FFFFF00
1FFFFF80
3FFFFF80
3F803F80
7F000F00
7F000000
7E000000
7E000000
7F000000
7F000000
7FC00000
3FF00000
3FFF0000
1FFFE000
0FFFFC00
03FFFE00
00FFFF80
000FFFC0
0001FFC0
00003FE0
00001FE0
00000FE0
000007E0
000007E0
100007E0
7C000FE0
7F001FE0
FFE07FC0
FFFFFFC0
7FFFFF80
3FFFFF00
1FFFFE00
07FFF800
00FFC000
ENDCHAR
STARTCHAR 0160
ENCODING 352
SWIDTH 640 0
DWIDTH 32 0
BBX 27 48 2 -1
BITMAP
03E07800
03F1FC00
03FFFC00
03FFFC00
01FFF000
007FE000
003F8000
000F0000
00000000
00000000
00000000
007FE000
03FFFC00
07FFFE00
0FFFFF00
1FFFFF80
3FFFFF80
3F803F80
7F000F00
7F000000
7E000000
7E000000
7F000000
7F000000
7FC00000
3FF00000
3FFF0000
1FFFE000
0FFFFC00
03FFFE00
00FFFF80
000FFFC0
0001FFC0
00003FE0
00001FE0
00000FE0
000007E0
000007E0
100007E0
7C000FE0
7F001FE0
FFE07FC0
FFFFFFC0
7FFFFF80
3FFFFF00
1FFFFE00
07FFF800
00FFC000
ENDCHAR
STARTCHAR 0161
ENCODING 353
SWIDTH 640 0
DWIDTH 32 0
BBX 27 48 2 -1
BITMAP
03E07800
03F1FC00
03FFFC00
03FFFC00
01FFF000
007FE000
003F8000
000F0000
00000000
00000000
00000000
007FE000
03FFFC00
07FFFE00
0FFFFF00
1FFFFF80
3FFFFF80
3F803F80
7F000F00
7F000000
7E000000
7E000000
7F000000
7F000000
7FC00000
3FF00000
3FFF0000
1FFFE000
0FFFFC00
03FFFE00
00FFFF80
000FFFC0
0001FFC0
00003FE0
00001FE0
00000FE0
000007E0
000007E0
100007E0
7C000FE0
7F001FE0
FFE07FC0
FFFFFFC0
7FFFFF80
3FFFFF00
1FFFFE00
07FFF800
00FFC000
ENDCHAR
STARTCHAR 0178
ENCODING 376
SWIDTH 640 0
DWIDTH 32 0
BBX 30 44 1 1
BITMAP
03E03F00
07F03F00
07F07F80
07F07F80
07F07F80
07F03F00
03E01E00
00000000
00000000
30000020
7C0000F8
FC0001FC
FE0003FC
FF0003FC
7F0007F8
7F800FF0
3FC00FF0
1FC01FE0
1FE03FC0
0FF03FC0
07F07F80
07F8FF00
03FCFE00
01FDFE00
01FFFC00
00FFF800
007FF800
007FF000
003FE000
001FE000
001FC000
001FC000
001FC000
001FC000
001FC000
001FC000
001FC000
001FC000
001FC000
001FC000
001FC000
001FC000
000FC000
00078000
ENDCHAR
STARTCHAR 0179
ENCODING 377
SWIDTH 620 0
DWIDTH 31 0
BBX 28 47 1 2
BITMAP
00006000
0001F800
0003F800
0007F800
001FF800
003FF000
003FC000
003F8000
001E0000
00000000
00000000
00000000
3FFFFFC0
7FFFFFE0
7FFFFFE0
7FFFFFE0
7FFFFFE0
3FFFFFE0
00003FC0
00007F80
00007F00
0000FF00
0001FE00
0003FC00
0003F800
0007F800
000FF000
001FE000
001FC000
003FC000
007F8000
00FF0000
00FE0000
01FC0000
03FC0000
07F80000
07F00000
0FE00000
1FE00000
3FC00000
3F800000
7FFFFFE0
FFFFFFF0
FFFFFFF0
FFFFFFF0
FFFFFFF0
7FFFFFE0
ENDCHAR
STARTCHAR 017A
ENCODING 378
SWIDTH 620 0
DWIDTH 31 0
BBX 28 47 1 2
BITMAP
00006000
0001F800
0003F800
0007F800
001FF800
003FF000
003FC000
003F8000
001E0000
00000000
00000000
00000000
3FFFFFC0
7FFFFFE0
7FFFFFE0
7FFFFFE0
7FFFFFE0
3FFFFFE0
00003FC0
00007F80
00007F00
0000FF00
0001FE00
0003FC00
0003F800
0007F800
000FF000
001FE000
001FC000
003FC000
007F8000
00FF0000
00FE0000
01FC0000
03FC0000
07F80000
07F00000
0FE00000
1FE00000
3FC00000
3F800000
7FFFFFE0
FFFFFFF0
FFFFFFF0
FFFFFFF0
FFFFFFF0
7FFFFFE0
ENDCHAR
STARTCHAR 017B
ENCODING 379
SWIDTH 620 0
DWIDTH 31 0
BBX 28 46 1 1
BITMAP
00060000
001F8000
001FC000
001FC000
001FC000
001FC000
001F8000
000F0000
00000000
00000000
00000000
3FFFFFC0
7FFFFFE0
7FFFFFE0
7FFFFFE0
7FFFFFE0
3FFFFFE0
00003FC0
00007F80
00007F00
0000FF00
0001FE00
0003FC00
0003F800
0007F800
000FF000
001FE000
001FC000
003FC000
007F8000
00FF0000
00FE0000
01FC0000
03FC0000
07F80000
07F00000
0FE00000
1FE00000
3FC00000
3F800000
7FFFFFE0
FFFFFFF0
FFFFFFF0
FFFFFFF0
FFFFFFF0
7FFFFFE0
ENDCHAR
STARTCHAR 017C
ENCODING 380
SWIDTH 620 0
DWIDTH 31 0
BBX 28 46 1 1
BITMAP
00060000
001F8000
001FC000
001FC000
001FC000
001FC000
001F8000
000F0000
00000000
00000000
00000000
3FFFFFC0
7FFFFFE0
7FFFFFE0
7FFFFFE0
7FFFFFE0
3FFFFFE0
00003FC0
00007F80
00007F00
0000FF00
0001FE00
0003FC00
0003F800
0007F800
000FF000
001FE000
001FC000
003FC000
007F8000
00FF0000
00FE0000
01FC0000
03FC0000
07F80000
07F00000
0FE00000
1FE00000
3FC00000
3F800000
7FFFFFE0
FFFFFFF0
FFFFFFF0
FFFFFFF0
FFFFFFF0
7FFFFFE0
ENDCHAR
STARTCHAR 017D
ENCODING 381
SWIDTH 620 0
DWIDTH 31 0
BBX 28 47 1 1
BITMAP
00801000
03E07C00
03F8FE00
03FFFE00
03FFFC00
00FFF800
007FE000
001FC000
000F0000
00000000
00000000
00000000
3FFFFFC0
7FFFFFE0
7FFFFFE0
7FFFFFE0
7FFFFFE0
3FFFFFE0
00003FC0
00007F80
00007F00
0000FF00
0001FE00
0003FC00
0003F800
0007F800
000FF000
001FE000
001FC000
003FC000
007F8000
00FF0000
00FE0000
01FC0000
03FC0000
07F80000
07F00000
0FE00000
1FE00000
3FC00000
3F800000
7FFFFFE0
FFFFFFF0
FFFFFFF0
FFFFFFF0
FFFFFFF0
7FFFFFE0
ENDCHAR
STARTCHAR 017E
ENCODING 382
SWIDTH 620 0
DWIDTH 31 0
BBX 28 47 1 1
BITMAP
00C01800
01F03E00
03F8FE00
03FFFE00
01FFFE00
00FFF800
003FF000
001FC000
00078000
00000000
00000000
00000000
3FFFFFC0
7FFFFFE0
7FFFFFE0
7FFFFFE0
7FFFFFE0
3FFFFFE0
00003FC0
00007F80
00007F00
0000FF00
0001FE00
0003FC00
0003F800
0007F800
000FF000
001FE000
001FC000
003FC000
007F8000
00FF0000
00FE0000
01FC0000
03FC0000
07F80000
07F00000
0FE00000
1FE00000
3FC00000
3F800000
7FFFFFE0
FFFFFFF0
FFFFFFF0
FFFFFFF0
FFFFFFF0
7FFFFFE0
ENDCHAR
STARTCHAR 02C6
ENCODING 710
SWIDTH 380 0
DWIDTH 19 0
BBX 15 9 2 26
BITMAP
03C0
07E0
1FF0
3FF8
7FFE
FFFE
FC7E
783E
2008
ENDCHAR
STARTCHAR 02C7
ENCODING 711
SWIDTH 380 0
DWIDTH 19 0
BBX 15 9 1 27
BITMAP
3008
783E
FC7E
FFFE
7FFE
3FFC
1FF0
07E0
03C0
ENDCHAR
STARTCHAR 02D8
ENCODING 728
SWIDTH 400 0
DWIDTH 20 0
BBX 16 9 2 27
BITMAP
700E
F81F
F81F
FC3F
FFFE
7FFE
3FFC
1FF8
07E0
ENDCHAR
STARTCHAR 02D9
ENCODING 729
SWIDTH 240 0
DWIDTH 12 0
BBX 7 8 2 28
BITMAP
18
7E
FE
FE
FE
FE
7E
3C
ENDCHAR
STARTCHAR 02DA
ENCODING 730
SWIDTH 360 0
DWIDTH 18 0
BBX 13 12 2 24
BITMAP
0F80
3FE0
7FF0
FFF8
FDF8
F878
F878
F8F8
FFF8
7FF0
3FF0
1FC0
ENDCHAR
STARTCHAR 02DC
ENCODING 732
SWIDTH 480 0
DWIDTH 24 0
BBX 18 8 3 28
BITMAP
0F8000
1FC380
3FF3C0
7FFFC0
FFFFC0
7DFF80
787F80
003E00
ENDCHAR
STARTCHAR 0410
ENCODING 1040
SWIDTH 740 0
DWIDTH 37 0
BBX 35 35 1 -1
BITMAP
0000600000
0001F00000
0003F80000
0003F80000
0007FC0000
0007FC0000
000FFE0000
000FFE0000
001FFF0000
001FFF0000
003FBF8000
003FBF8000
007F1FC000
007F1FC000
00FE0FE000
00FE0FE000
01FC07F000
01FC07F000
03F807F800
03F803F800
07F003FC00
07F001FC00
0FFFFFFE00
0FFFFFFE00
1FFFFFFF00
1FFFFFFF00
3FFFFFFF80
3FFFFFFF80
7FFFFFFFC0
7F00001FC0
FF00000FE0
FE00000FE0
FE000007E0
FC000007E0
78000003C0
ENDCHAR
STARTCHAR 0412
ENCODING 1042
SWIDTH 720 0
DWIDTH 36 0
BBX 31 35 3 0
BITMAP
3FFFF800
7FFFFE00
7FFFFF80
FFFFFFC0
FFFFFFC0
FFFFFFE0
FE001FE0
FE000FE0
FE0007F0
FE0007F0
FE0007F0
FE0007F0
FE000FE0
FE001FE0
FFFFFFC0
FFFFFFC0
FFFFFFC0
FFFFFFE0
FFFFFFF0
FFFFFFF8
FE0007FC
FE0001FC
FE0001FC
FE0001FE
FE0000FE
FE0001FE
FE0001FC
FE0003FC
FE0007FC
FFFFFFFC
FFFFFFF8
FFFFFFF0
FFFFFFE0
7FFFFFC0
3FFFFE00
ENDCHAR
STARTCHAR 0415
ENCODING 1045
SWIDTH 620 0
DWIDTH 31 0
BBX 26 35 3 0
BITMAP
0FFFFC00
7FFFFF00
7FFFFF80
FFFFFF80
FFFFFF80
FFFFFF00
FFFFFE00
FE000000
FE000000
FE000000
FE000000
FE000000
FE000000
FE000000
FFFFF000
FFFFFC00
FFFFFE00
FFFFFE00
FFFFFE00
FFFFFE00
FFFFFC00
FE000000
FE000000
FE000000
FE000000
FE000000
FE000000
FE000000
FFFFFE00
FFFFFF80
FFFFFFC0
FFFFFFC0
FFFFFFC0
7FFFFF80
3FFFFF00
ENDCHAR
STARTCHAR 041C
ENCODING 1052
SWIDTH 820 0
DWIDTH 41 0
BBX 34 35 4 1
BITMAP
7000000700
F800000F80
FC00001FC0
FE00003FC0
FF00003FC0
FF00007FC0
FF8000FFC0
FFC001FFC0
FFE001FFC0
FFE003FFC0
FFF007FFC0
FFF80FFFC0
FFFC0FFFC0
FFFC1FEFC0
FDFE3FCFC0
FCFF3FCFC0
FC7FFF8FC0
FC7FFF0FC0
FC3FFE0FC0
FC1FFE0FC0
FC1FFC0FC0
FC0FF80FC0
FC07F00FC0
FC03E00FC0
FC03C00FC0
FC00000FC0
FC00000FC0
FC00000FC0
FC00000FC0
FC00000FC0
FC00000FC0
FC00000FC0
FC00000FC0
FC00000F80
7000000700
ENDCHAR
STARTCHAR 041D
ENCODING 1053
SWIDTH 720 0
DWIDTH 36 0
BBX 29 35 4 0
BITMAP
780000F0
FC0001F8
FC0001F8
FC0003F8
FC0003F8
FC0003F8
FC0003F8
FC0003F8
FC0003F8
FC0003F8
FC0003F8
FC0003F8
FC0003F8
FC0003F8
FFFFFFF8
FFFFFFF8
FFFFFFF8
FFFFFFF8
FFFFFFF8
FFFFFFF8
FFFFFFF8
FC0003F8
FC0003F8
FC0003F8
FC0003F8
FC0003F8
FC0003F8
FC0003F8
FC0003F8
FC0003F8
FC0003F8
FC0003F8
FC0001F8
FC0001F8
780000F0
ENDCHAR
STARTCHAR 041E
ENCODING 1054
SWIDTH 840 0
DWIDTH 42 0
BBX 37 37 2 -1
BITMAP
0001FE0000
001FFFC000
007FFFF000
00FFFFFC00
03FFFFFE00
07FFFFFF00
0FFFFFFF80
0FFC01FFC0
1FF0007FC0
3FE0001FE0
3FC0000FE0
3F80000FF0
7F000007F0
7F000007F0
7E000003F8
7E000003F8
FE000003F8
FE000003F8
FE000003F8
FE000003F8
FE000003F8
FE000003F8
7E000003F8
7F000003F0
7F000007F0
7F800007F0
3F80000FF0
3FC0001FE0
1FF0003FE0
1FF800FFC0
0FFF03FF80
07FFFFFF00
03FFFFFE00
01FFFFFC00
007FFFF000
001FFFC000
0003FE0000
ENDCHAR
STARTCHAR 0420
ENCODING 1056
SWIDTH 660 0
DWIDTH 33 0
BBX 27 35 4 0
BITMAP
7FFFC000
FFFFF800
FFFFFC00
FFFFFE00
FFFFFF00
FFFFFF80
FC00FFC0
FC003FC0
FC001FC0
FC000FE0
FC000FE0
FC000FE0
FC000FE0
FC000FE0
FC000FE0
FC000FE0
FC001FC0
FC003FC0
FC00FFC0
FFFFFF80
FFFFFF00
FFFFFE00
FFFFFC00
FFFFF800
FFFFC000
FC000000
FC000000
FC000000
FC000000
FC000000
FC000000
FC000000
FC000000
FC000000
78000000
ENDCHAR
STARTCHAR 0421
ENCODING 1057
SWIDTH 700 0
DWIDTH 35 0
BBX 31 36 2 -1
BITMAP
0007FC00
003FFF80
00FFFFE0
01FFFFF0
03FFFFF8
07FFFFFC
0FFF9FFC
1FF001FC
1FE000FC
3FC00078
3F800000
7F000000
7F000000
7E000000
7E000000
FE000000
FC000000
FC000000
FC000000
FE000000
FE000000
FE000000
7E000000
7F000000
7F000000
7F800000
3F800038
3FC0007C
1FF001FE
0FFC07FE
0FFFFFFE
07FFFFFC
03FFFFF8
00FFFFF0
003FFFC0
0007FE00
ENDCHAR
STARTCHAR 0422
ENCODING 1058
SWIDTH 640 0
DWIDTH 32 0
BBX 30 35 1 -1
BITMAP
7FFFFFF8
FFFFFFFC
FFFFFFFC
FFFFFFFC
FFFFFFFC
7FFFFFF8
000FE000
000FE000
000FE000
000FE000
000FE000
000FE000
000FE000
000FE000
000FE000
000FE000
000FE000
000FE000
000FE000
000FE000
000FE000
000FE000
000FE000
000FE000
000FE000
000FE000
000FE000
000FE000
000FE000
000FE000
000FE000
000FE000
000FC000
000FC000
00078000
ENDCHAR
STARTCHAR 0430
ENCODING 1072
SWIDTH 740 0
DWIDTH 37 0
BBX 35 35 1 -1
BITMAP
0000600000
0001F00000
0003F80000
0003F80000
0007FC0000
0007FC0000
000FFE0000
000FFE0000
001FFF0000
001FFF0000
003FBF8000
003FBF8000
007F1FC000
007F1FC000
00FE0FE000
00FE0FE000
01FC07F000
01FC07F000
03F807F800
03F803F800
07F003FC00
07F001FC00
0FFFFFFE00
0FFFFFFE00
1FFFFFFF00
1FFFFFFF00
3FFFFFFF80
3FFFFFFF80
7FFFFFFFC0
7F00001FC0
FF00000FE0
FE00000FE0
FE000007E0
FC000007E0
78000003C0
ENDCHAR
STARTCHAR 0432
ENCODING 1074
SWIDTH 840 0
DWIDTH 42 0
BBX 0 0 0 0
BITMAP
ENDCHAR
STARTCHAR 0435
ENCODING 1077
SWIDTH 620 0
DWIDTH 31 0
BBX 26 35 3 0
BITMAP
0FFFFC00
7FFFFF00
7FFFFF80
FFFFFF80
FFFFFF80
FFFFFF00
FFFFFE00
FE000000
FE000000
FE000000
FE000000
FE000000
FE000000
FE000000
FFFFF000
FFFFFC00
FFFFFE00
FFFFFE00
FFFFFE00
FFFFFE00
FFFFFC00
FE000000
FE000000
FE000000
FE000000
FE000000
FE000000
FE000000
FFFFFE00
FFFFFF80
FFFFFFC0
FFFFFFC0
FFFFFFC0
7FFFFF80
3FFFFF00
ENDCHAR
STARTCHAR 043E
ENCODING 1086
SWIDTH 840 0
DWIDTH 42 0
BBX 37 37 2 -1
BITMAP
0001FE0000
001FFFC000
007FFFF000
00FFFFFC00
03FFFFFE00
07FFFFFF00
0FFFFFFF80
0FFC01FFC0
1FF0007FC0
3FE0001FE0
3FC0000FE0
3F80000FF0
7F000007F0
7F000007F0
7E000003F8
7E000003F8
FE000003F8
FE000003F8
FE000003F8
FE000003F8
FE000003F8
FE000003F8
7E000003F8
7F000003F0
7F000007F0
7F800007F0
3F80000FF0
3FC0001FE0
1FF0003FE0
1FF800FFC0
0FFF03FF80
07FFFFFF00
03FFFFFE00
01FFFFFC00
007FFFF000
001FFFC000
0003FE0000
ENDCHAR
STARTCHAR 0440
ENCODING 1088
SWIDTH 660 0
DWIDTH 33 0
BBX 27 35 4 0
BITMAP
7FFFC000
FFFFF800
FFFFFC00
FFFFFE00
FFFFFF00
FFFFFF80
FC00FFC0
FC003FC0
FC001FC0
FC000FE0
FC000FE0
FC000FE0
FC000FE0
FC000FE0
FC000FE0
FC000FE0
FC001FC0
FC003FC0
FC00FFC0
FFFFFF80
FFFFFF00
FFFFFE00
FFFFFC00
FFFFF800
FFFFC000
FC000000
FC000000
FC000000
FC000000
FC000000
FC000000
FC000000
FC000000
FC000000
78000000
ENDCHAR
STARTCHAR 0441
ENCODING 1089
SWIDTH 700 0
DWIDTH 35 0
BBX 31 36 2 -1
BITMAP
0007FC00
003FFF80
00FFFFE0
01FFFFF0
03FFFFF8
07FFFFFC
0FFF9FFC
1FF001FC
1FE000FC
3FC00078
3F800000
7F000000
7F000000
7E000000
7E000000
FE000000
FC000000
FC000000
FC000000
FE000000
FE000000
FE000000
7E000000
7F000000
7F000000
7F800000
3F800038
3FC0007C
1FF001FE
0FFC07FE
0FFFFFFE
07FFFFFC
03FFFFF8
00FFFFF0
003FFFC0
0007FE00
ENDCHAR
STARTCHAR 0442
ENCODING 1090
SWIDTH 840 0
DWIDTH 42 0
BBX 0 0 0 0
BITMAP
ENDCHAR
STARTCHAR 2013
ENCODING 8211
SWIDTH 580 0
DWIDTH 29 0
BBX 23 6 3 14
BITMAP
7FFFFC
FFFFFE
FFFFFE
FFFFFE
FFFFFE
7FFFFC
ENDCHAR
STARTCHAR 2014
ENCODING 8212
SWIDTH 720 0
DWIDTH 36 0
BBX 30 6 3 14
BITMAP
7FFFFFF8
FFFFFFFC
FFFFFFFC
FFFFFFFC
FFFFFFFC
7FFFFFF8
ENDCHAR
STARTCHAR 201A
ENCODING 8218
SWIDTH 200 0
DWIDTH 10 0
BBX 5 14 3 -1
BITMAP
70
F8
F8
F8
F8
F8
F8
F8
F8
F8
F8
F8
F8
70
ENDCHAR
STARTCHAR 201E
ENCODING 8222
SWIDTH 400 0
DWIDTH 20 0
BBX 15 14 3 -2
BITMAP
2018
F83E
F87E
F87E
F87E
F87E
F87E
F87E
F87E
F87E
F87E
F87E
F83E
7018
ENDCHAR
STARTCHAR 2022
ENCODING 8226
SWIDTH 300 0
DWIDTH 15 0
BBX 10 11 3 12
BITMAP
3E00
7F80
FF80
FFC0
FFC0
FFC0
FFC0
FF80
FF80
7F00
1C00
ENDCHAR
STARTCHAR 2026
ENCODING 8230
SWIDTH 700 0
DWIDTH 35 0
BBX 31 8 2 0
BITMAP
38038030
7E0FC0FC
FE0FE0FC
FE0FE1FE
FE0FE1FE
FE0FE1FC
7E0FC0FC
3C078078
ENDCHAR
STARTCHAR 2030
ENCODING 8240
SWIDTH 1340 0
DWIDTH 67 0
BBX 64 37 1 0
BITMAP
03F8000000000000
0FFE000180000000
1FFF0007C0000000
3FFF800FE0000000
7FFF800FE0000000
7FBFC01FE0000000
7E1FC03FC0000000
7E0FC03FC0000000
FC0FC07F80000000
FC0FC0FF00000000
FC0FC1FF00000000
FE0FC1FE00000000
7E0FC3FC00000000
7F1FC7F800000000
7FFF87F800000000
3FFF8FF000000000
1FFF1FE000000000
0FFE3FE0FC000FE0
07F83FC3FF003FF8
00007F87FF807FFC
0000FF0FFFC0FFFC
0000FF1FFFE1FFFE
0001FE1FFFE1FFFF
0003FC3F87F1F87F
0007FC3F03F3F83F
0007F83F03F3F03F
000FF03F03F3F03F
001FE03F03F3F03F
001FE03F03F3F03F
003FC03F87F1F83F
007F803FCFE1FCFF
007F001FFFE1FFFE
00FF001FFFC0FFFE
00FE000FFFC0FFFC
007C0007FF807FF8
00380003FE001FF0
0000000070000300
ENDCHAR
STARTCHAR 20AC
ENCODING 8364
SWIDTH 660 0
DWIDTH 33 0
BBX 30 36 1 -1
BITMAP
0000FE00
0007FF80
001FFFE0
003FFFF0
007FFFF8
00FFFFF8
01FFFFFC
01FE01F8
03FC00F8
03F80070
03F00000
7FFFF800
FFFFFC00
FFFFFE00
FFFFFE00
FFFFFC00
3FFFF000
0FE00000
0FE00000
0FE00000
7FFFF800
FFFFFC00
FFFFFE00
FFFFFE00
FFFFFC00
7FFFF800
03F00038
03F8007C
03FC00FC
01FFCFFC
01FFFFFC
00FFFFF8
007FFFF8
003FFFE0
000FFFC0
0001FE00
ENDCHAR
ENDFONT
